DavidHadashUpright-Light_draw_a.ufo
<glyph name="exclam" format="1">
  <advance width="408"/>
  <unicode hex="0021"/>
  <outline>
    <contour>
      <point x="156" y="34" type="curve" smooth="yes"/>
      <point x="153" y="38"/>
      <point x="151" y="43"/>
      <point x="151" y="46" type="curve" smooth="yes"/>
      <point x="151" y="49"/>
      <point x="152" y="52"/>
      <point x="154" y="54" type="curve" smooth="yes"/>
      <point x="173" y="73"/>
      <point x="193" y="96"/>
      <point x="203" y="111" type="curve" smooth="yes"/>
      <point x="206" y="115"/>
      <point x="209" y="116"/>
      <point x="212" y="116" type="curve" smooth="yes"/>
      <point x="216" y="116"/>
      <point x="218" y="114"/>
      <point x="221" y="112" type="curve" smooth="yes"/>
      <point x="233" y="104"/>
      <point x="269" y="66"/>
      <point x="279" y="60" type="curve" smooth="yes"/>
      <point x="283" y="57"/>
      <point x="287" y="53"/>
      <point x="287" y="48" type="curve" smooth="yes"/>
      <point x="287" y="44"/>
      <point x="285" y="42"/>
      <point x="282" y="36" type="curve" smooth="yes"/>
      <point x="276" y="24"/>
      <point x="244" y="-13"/>
      <point x="230" y="-22" type="curve" smooth="yes"/>
      <point x="228" y="-23"/>
      <point x="225" y="-24"/>
      <point x="223" y="-24" type="curve" smooth="yes"/>
      <point x="221" y="-24"/>
      <point x="218" y="-23"/>
      <point x="216" y="-22" type="curve" smooth="yes"/>
      <point x="201" y="-13"/>
      <point x="170" y="17"/>
    </contour>
    <contour>
      <point x="191" y="231" type="curve" smooth="yes"/>
      <point x="182" y="337"/>
      <point x="160" y="577"/>
      <point x="160" y="605" type="curve" smooth="yes"/>
      <point x="160" y="617"/>
      <point x="162" y="625"/>
      <point x="166" y="631" type="curve" smooth="yes"/>
      <point x="187" y="667"/>
      <point x="204" y="692"/>
      <point x="225" y="709" type="curve" smooth="yes"/>
      <point x="227" y="711"/>
      <point x="232" y="714"/>
      <point x="235" y="714" type="curve" smooth="yes"/>
      <point x="239" y="714"/>
      <point x="243" y="710"/>
      <point x="243" y="703" type="curve" smooth="yes"/>
      <point x="243" y="680"/>
      <point x="246" y="578"/>
      <point x="246" y="527" type="curve" smooth="yes"/>
      <point x="246" y="293" type="line" smooth="yes"/>
      <point x="246" y="288"/>
      <point x="246" y="281"/>
      <point x="244" y="273" type="curve" smooth="yes"/>
      <point x="237" y="249"/>
      <point x="220" y="221"/>
      <point x="213" y="210" type="curve" smooth="yes"/>
      <point x="210" y="206"/>
      <point x="208" y="202"/>
      <point x="203" y="202" type="curve" smooth="yes"/>
      <point x="195" y="202"/>
      <point x="192" y="219"/>
    </contour>
  </outline>
</glyph>
<glyph name="ampersand" format="1">
  <advance width="755"/>
  <unicode hex="0026"/>
  <outline>
    <contour>
      <point x="189" y="544" type="curve" smooth="yes"/>
      <point x="189" y="526"/>
      <point x="191" y="502"/>
      <point x="198" y="483" type="curve" smooth="yes"/>
      <point x="212" y="446"/>
      <point x="224" y="427"/>
      <point x="233" y="413" type="curve"/>
      <point x="213" y="400"/>
      <point x="108" y="322"/>
      <point x="108" y="206" type="curve" smooth="yes"/>
      <point x="108" y="59"/>
      <point x="222" y="0"/>
      <point x="301" y="0" type="curve" smooth="yes"/>
      <point x="386" y="0"/>
      <point x="452" y="45"/>
      <point x="493" y="73" type="curve"/>
      <point x="499" y="64"/>
      <point x="539" y="16"/>
      <point x="552" y="3" type="curve" smooth="yes"/>
      <point x="553" y="2"/>
      <point x="556" y="-1"/>
      <point x="561" y="-1" type="curve" smooth="yes"/>
      <point x="564" y="-1"/>
      <point x="571" y="1"/>
      <point x="574" y="3" type="curve" smooth="yes"/>
      <point x="601" y="17"/>
      <point x="635" y="37"/>
      <point x="644" y="43" type="curve" smooth="yes"/>
      <point x="646" y="44"/>
      <point x="647" y="45"/>
      <point x="647" y="46" type="curve" smooth="yes"/>
      <point x="647" y="48"/>
      <point x="643" y="52"/>
      <point x="640" y="55" type="curve" smooth="yes"/>
      <point x="613" y="83"/>
      <point x="590" y="112"/>
      <point x="569" y="139" type="curve"/>
      <point x="618" y="201"/>
      <point x="652" y="259"/>
      <point x="652" y="338" type="curve" smooth="yes"/>
      <point x="652" y="379"/>
      <point x="639" y="425"/>
      <point x="630" y="442" type="curve" smooth="yes"/>
      <point x="627" y="447"/>
      <point x="625" y="449"/>
      <point x="622" y="449" type="curve" smooth="yes"/>
      <point x="620" y="449"/>
      <point x="619" y="448"/>
      <point x="616" y="445" type="curve" smooth="yes"/>
      <point x="604" y="434"/>
      <point x="563" y="394"/>
      <point x="550" y="380" type="curve" smooth="yes"/>
      <point x="546" y="376"/>
      <point x="545" y="373"/>
      <point x="545" y="370" type="curve" smooth="yes"/>
      <point x="545" y="368"/>
      <point x="546" y="366"/>
      <point x="547" y="363" type="curve" smooth="yes"/>
      <point x="554" y="348"/>
      <point x="572" y="317"/>
      <point x="572" y="273" type="curve" smooth="yes"/>
      <point x="572" y="239"/>
      <point x="555" y="199"/>
      <point x="536" y="176" type="curve"/>
      <point x="471" y="257"/>
      <point x="408" y="341"/>
      <point x="337" y="437" type="curve"/>
      <point x="382" y="471"/>
      <point x="455" y="538"/>
      <point x="455" y="604" type="curve" smooth="yes"/>
      <point x="455" y="686"/>
      <point x="407" y="719"/>
      <point x="361" y="720" type="curve"/>
      <point x="340" y="720"/>
      <point x="316" y="713"/>
      <point x="293" y="700" type="curve" smooth="yes"/>
      <point x="238" y="669"/>
      <point x="189" y="605"/>
    </contour>
    <contour>
      <point x="309" y="653" type="curve" smooth="yes"/>
      <point x="340" y="653"/>
      <point x="374" y="620"/>
      <point x="374" y="583" type="curve" smooth="yes"/>
      <point x="374" y="538"/>
      <point x="348" y="508"/>
      <point x="311" y="479" type="curve"/>
      <point x="287" y="520"/>
      <point x="256" y="563"/>
      <point x="256" y="610" type="curve" smooth="yes"/>
      <point x="256" y="643"/>
      <point x="287" y="653"/>
    </contour>
    <contour>
      <point x="263" y="371" type="curve"/>
      <point x="280" y="343"/>
      <point x="432" y="146"/>
      <point x="464" y="111" type="curve"/>
      <point x="451" y="100"/>
      <point x="411" y="71"/>
      <point x="357" y="71" type="curve" smooth="yes"/>
      <point x="260" y="71"/>
      <point x="192" y="143"/>
      <point x="192" y="231" type="curve" smooth="yes"/>
      <point x="192" y="310"/>
      <point x="243" y="358"/>
    </contour>
  </outline>
</glyph>
<glyph name="asterisk" format="1">
  <advance width="408"/>
  <unicode hex="002A"/>
  <outline>
    <contour>
      <point x="209" y="630" type="curve" smooth="yes"/>
      <point x="207" y="631"/>
      <point x="205" y="632"/>
      <point x="203" y="632" type="curve" smooth="yes"/>
      <point x="201" y="632"/>
      <point x="200" y="631"/>
      <point x="198" y="630" type="curve" smooth="yes"/>
      <point x="193" y="627"/>
      <point x="154" y="600"/>
      <point x="148" y="597" type="curve" smooth="yes"/>
      <point x="147" y="596"/>
      <point x="145" y="596"/>
      <point x="144" y="596" type="curve" smooth="yes"/>
      <point x="140" y="596"/>
      <point x="136" y="599"/>
      <point x="136" y="604" type="curve" smooth="yes"/>
      <point x="136" y="614"/>
      <point x="154" y="651"/>
      <point x="154" y="657" type="curve" smooth="yes"/>
      <point x="154" y="664"/>
      <point x="153" y="667"/>
      <point x="151" y="669" type="curve" smooth="yes"/>
      <point x="138" y="679"/>
      <point x="114" y="695"/>
      <point x="109" y="698" type="curve" smooth="yes"/>
      <point x="106" y="700"/>
      <point x="105" y="703"/>
      <point x="105" y="705" type="curve" smooth="yes"/>
      <point x="105" y="709"/>
      <point x="108" y="712"/>
      <point x="113" y="712" type="curve"/>
      <point x="163" y="712" type="line" smooth="yes"/>
      <point x="169" y="712"/>
      <point x="175" y="714"/>
      <point x="177" y="721" type="curve" smooth="yes"/>
      <point x="181" y="734"/>
      <point x="194" y="771"/>
      <point x="196" y="775" type="curve" smooth="yes"/>
      <point x="197" y="779"/>
      <point x="200" y="781"/>
      <point x="203" y="781" type="curve" smooth="yes"/>
      <point x="206" y="781"/>
      <point x="209" y="779"/>
      <point x="210" y="775" type="curve" smooth="yes"/>
      <point x="211" y="771"/>
      <point x="226" y="734"/>
      <point x="230" y="721" type="curve" smooth="yes"/>
      <point x="232" y="714"/>
      <point x="238" y="712"/>
      <point x="244" y="712" type="curve"/>
      <point x="292" y="712" type="line" smooth="yes"/>
      <point x="297" y="712"/>
      <point x="300" y="709"/>
      <point x="300" y="705" type="curve" smooth="yes"/>
      <point x="300" y="703"/>
      <point x="297" y="699"/>
      <point x="294" y="697" type="curve" smooth="yes"/>
      <point x="289" y="694"/>
      <point x="268" y="679"/>
      <point x="256" y="669" type="curve" smooth="yes"/>
      <point x="254" y="667"/>
      <point x="253" y="664"/>
      <point x="253" y="657" type="curve" smooth="yes"/>
      <point x="253" y="649"/>
      <point x="269" y="615"/>
      <point x="269" y="605" type="curve" smooth="yes"/>
      <point x="269" y="600"/>
      <point x="266" y="596"/>
      <point x="262" y="596" type="curve" smooth="yes"/>
      <point x="262" y="596"/>
      <point x="260" y="597"/>
      <point x="259" y="597" type="curve" smooth="yes"/>
      <point x="253" y="600"/>
      <point x="214" y="627"/>
    </contour>
  </outline>
</glyph>
<glyph name="comma" format="1">
  <advance width="408"/>
  <unicode hex="002C"/>
  <outline>
    <contour>
      <point x="173" y="-12" type="curve" smooth="yes"/>
      <point x="173" y="20"/>
      <point x="164" y="46"/>
      <point x="159" y="60" type="curve" smooth="yes"/>
      <point x="158" y="63"/>
      <point x="157" y="65"/>
      <point x="157" y="68" type="curve" smooth="yes"/>
      <point x="157" y="71"/>
      <point x="158" y="74"/>
      <point x="160" y="77" type="curve" smooth="yes"/>
      <point x="171" y="93"/>
      <point x="198" y="127"/>
      <point x="216" y="148" type="curve" smooth="yes"/>
      <point x="219" y="151"/>
      <point x="222" y="152"/>
      <point x="225" y="152" type="curve" smooth="yes"/>
      <point x="228" y="152"/>
      <point x="231" y="150"/>
      <point x="233" y="147" type="curve" smooth="yes"/>
      <point x="242" y="131"/>
      <point x="265" y="87"/>
      <point x="265" y="45" type="curve" smooth="yes"/>
      <point x="265" y="10"/>
      <point x="254" y="-21"/>
      <point x="246" y="-40" type="curve" smooth="yes"/>
      <point x="236" y="-64"/>
      <point x="152" y="-218"/>
      <point x="138" y="-218" type="curve" smooth="yes"/>
      <point x="134" y="-218"/>
      <point x="128" y="-216"/>
      <point x="128" y="-211" type="curve" smooth="yes"/>
      <point x="128" y="-198"/>
      <point x="173" y="-55"/>
    </contour>
  </outline>
</glyph>
<glyph name="period" format="1">
  <advance width="408"/>
  <unicode hex="002E"/>
  <outline>
    <contour>
      <point x="141" y="34" type="curve" smooth="yes"/>
      <point x="138" y="38"/>
      <point x="136" y="43"/>
      <point x="136" y="46" type="curve" smooth="yes"/>
      <point x="136" y="49"/>
      <point x="137" y="52"/>
      <point x="139" y="54" type="curve" smooth="yes"/>
      <point x="158" y="73"/>
      <point x="178" y="96"/>
      <point x="188" y="111" type="curve" smooth="yes"/>
      <point x="191" y="115"/>
      <point x="194" y="116"/>
      <point x="197" y="116" type="curve" smooth="yes"/>
      <point x="201" y="116"/>
      <point x="203" y="114"/>
      <point x="206" y="112" type="curve" smooth="yes"/>
      <point x="218" y="104"/>
      <point x="254" y="66"/>
      <point x="264" y="60" type="curve" smooth="yes"/>
      <point x="268" y="57"/>
      <point x="272" y="53"/>
      <point x="272" y="48" type="curve" smooth="yes"/>
      <point x="272" y="44"/>
      <point x="270" y="42"/>
      <point x="267" y="36" type="curve" smooth="yes"/>
      <point x="261" y="24"/>
      <point x="229" y="-13"/>
      <point x="215" y="-22" type="curve" smooth="yes"/>
      <point x="213" y="-23"/>
      <point x="210" y="-24"/>
      <point x="208" y="-24" type="curve" smooth="yes"/>
      <point x="206" y="-24"/>
      <point x="203" y="-23"/>
      <point x="201" y="-22" type="curve" smooth="yes"/>
      <point x="186" y="-13"/>
      <point x="155" y="17"/>
    </contour>
  </outline>
</glyph>
<glyph name="slash" format="1">
  <advance width="408"/>
  <unicode hex="002F"/>
  <outline>
    <contour>
      <point x="168" y="267" type="curve" smooth="yes"/>
      <point x="233" y="428"/>
      <point x="288" y="574"/>
      <point x="302" y="612" type="curve" smooth="yes"/>
      <point x="306" y="624"/>
      <point x="310" y="631"/>
      <point x="319" y="639" type="curve"/>
      <point x="356" y="670" type="line" smooth="yes"/>
      <point x="362" y="675"/>
      <point x="370" y="680"/>
      <point x="376" y="680" type="curve" smooth="yes"/>
      <point x="380" y="680"/>
      <point x="383" y="676"/>
      <point x="383" y="673" type="curve" smooth="yes"/>
      <point x="383" y="669"/>
      <point x="380" y="658"/>
      <point x="378" y="653" type="curve" smooth="yes"/>
      <point x="348" y="578"/>
      <point x="260" y="366"/>
      <point x="227" y="283" type="curve" smooth="yes"/>
      <point x="184" y="175"/>
      <point x="147" y="79"/>
      <point x="111" y="-4" type="curve" smooth="yes"/>
      <point x="100" y="-30"/>
      <point x="92" y="-48"/>
      <point x="84" y="-56" type="curve" smooth="yes"/>
      <point x="69" y="-70"/>
      <point x="57" y="-80"/>
      <point x="45" y="-87" type="curve" smooth="yes"/>
      <point x="40" y="-90"/>
      <point x="37" y="-91"/>
      <point x="34" y="-91" type="curve" smooth="yes"/>
      <point x="27" y="-91"/>
      <point x="23" y="-87"/>
      <point x="23" y="-81" type="curve" smooth="yes"/>
      <point x="23" y="-77"/>
      <point x="25" y="-71"/>
      <point x="27" y="-66" type="curve" smooth="yes"/>
      <point x="55" y="2"/>
      <point x="112" y="128"/>
    </contour>
  </outline>
</glyph>
<glyph name="zero" format="1">
  <advance width="568"/>
  <unicode hex="0030"/>
  <outline>
    <contour>
      <point x="75" y="340" type="curve" smooth="yes"/>
      <point x="75" y="417"/>
      <point x="87" y="537"/>
      <point x="138" y="605" type="curve" smooth="yes"/>
      <point x="183" y="663"/>
      <point x="224" y="707"/>
      <point x="292" y="707" type="curve" smooth="yes"/>
      <point x="368" y="707"/>
      <point x="432" y="652"/>
      <point x="463" y="599" type="curve" smooth="yes"/>
      <point x="502" y="532"/>
      <point x="507" y="428"/>
      <point x="507" y="351" type="curve" smooth="yes"/>
      <point x="507" y="318"/>
      <point x="505" y="276"/>
      <point x="493" y="227" type="curve" smooth="yes"/>
      <point x="483" y="188"/>
      <point x="458" y="103"/>
      <point x="395" y="43" type="curve" smooth="yes"/>
      <point x="366" y="16"/>
      <point x="333" y="-16"/>
      <point x="274" y="-16" type="curve" smooth="yes"/>
      <point x="209" y="-16"/>
      <point x="162" y="17"/>
      <point x="125" y="77" type="curve" smooth="yes"/>
      <point x="94" y="127"/>
      <point x="75" y="244"/>
    </contour>
    <contour>
      <point x="313" y="82" type="curve" smooth="yes"/>
      <point x="333" y="82"/>
      <point x="360" y="88"/>
      <point x="372" y="103" type="curve" smooth="yes"/>
      <point x="388" y="123"/>
      <point x="399" y="163"/>
      <point x="405" y="202" type="curve" smooth="yes"/>
      <point x="411" y="243"/>
      <point x="417" y="287"/>
      <point x="417" y="345" type="curve" smooth="yes"/>
      <point x="417" y="407"/>
      <point x="409" y="459"/>
      <point x="398" y="503" type="curve" smooth="yes"/>
      <point x="381" y="571"/>
      <point x="326" y="614"/>
      <point x="260" y="614" type="curve" smooth="yes"/>
      <point x="210" y="614"/>
      <point x="194" y="574"/>
      <point x="188" y="554" type="curve" smooth="yes"/>
      <point x="171" y="500"/>
      <point x="164" y="436"/>
      <point x="164" y="366" type="curve" smooth="yes"/>
      <point x="164" y="290"/>
      <point x="177" y="209"/>
      <point x="192" y="163" type="curve" smooth="yes"/>
      <point x="205" y="125"/>
      <point x="249" y="82"/>
    </contour>
  </outline>
</glyph>
<glyph name="six" format="1">
  <advance width="568"/>
  <unicode hex="0036"/>
  <outline>
    <contour>
      <point x="111" y="345" type="curve" smooth="yes"/>
      <point x="152" y="428"/>
      <point x="265" y="593"/>
      <point x="328" y="664" type="curve" smooth="yes"/>
      <point x="337" y="674"/>
      <point x="348" y="679"/>
      <point x="353" y="683" type="curve" smooth="yes"/>
      <point x="367" y="691"/>
      <point x="418" y="716"/>
      <point x="432" y="716" type="curve" smooth="yes"/>
      <point x="438" y="716"/>
      <point x="441" y="713"/>
      <point x="441" y="709" type="curve" smooth="yes"/>
      <point x="441" y="701"/>
      <point x="422" y="678"/>
      <point x="404" y="654" type="curve" smooth="yes"/>
      <point x="382" y="624"/>
      <point x="235" y="417"/>
      <point x="235" y="406" type="curve" smooth="yes"/>
      <point x="235" y="405"/>
      <point x="237" y="403"/>
      <point x="238" y="403" type="curve" smooth="yes"/>
      <point x="239" y="403"/>
      <point x="279" y="436"/>
      <point x="331" y="436" type="curve" smooth="yes"/>
      <point x="391" y="436"/>
      <point x="432" y="409"/>
      <point x="458" y="382" type="curve" smooth="yes"/>
      <point x="492" y="348"/>
      <point x="512" y="298"/>
      <point x="512" y="231" type="curve" smooth="yes"/>
      <point x="512" y="163"/>
      <point x="468" y="93"/>
      <point x="415" y="46" type="curve" smooth="yes"/>
      <point x="370" y="6"/>
      <point x="320" y="-16"/>
      <point x="264" y="-16" type="curve" smooth="yes"/>
      <point x="159" y="-16"/>
      <point x="66" y="90"/>
      <point x="66" y="191" type="curve" smooth="yes"/>
      <point x="66" y="252"/>
      <point x="88" y="300"/>
    </contour>
    <contour>
      <point x="403" y="291" type="curve" smooth="yes"/>
      <point x="376" y="328"/>
      <point x="333" y="352"/>
      <point x="284" y="352" type="curve" smooth="yes"/>
      <point x="215" y="352"/>
      <point x="152" y="302"/>
      <point x="152" y="226" type="curve" smooth="yes"/>
      <point x="152" y="142"/>
      <point x="218" y="75"/>
      <point x="302" y="75" type="curve" smooth="yes"/>
      <point x="375" y="75"/>
      <point x="427" y="130"/>
      <point x="427" y="206" type="curve" smooth="yes"/>
      <point x="427" y="231"/>
      <point x="421" y="267"/>
    </contour>
  </outline>
</glyph>
<glyph name="eight" format="1">
  <advance width="568"/>
  <unicode hex="0038"/>
  <outline>
    <contour>
      <point x="65" y="182" type="curve" smooth="yes"/>
      <point x="65" y="274"/>
      <point x="125" y="322"/>
      <point x="180" y="353" type="curve" smooth="yes"/>
      <point x="184" y="355"/>
      <point x="186" y="358"/>
      <point x="186" y="360" type="curve" smooth="yes"/>
      <point x="186" y="362"/>
      <point x="185" y="363"/>
      <point x="184" y="364" type="curve" smooth="yes"/>
      <point x="150" y="382"/>
      <point x="100" y="425"/>
      <point x="100" y="508" type="curve" smooth="yes"/>
      <point x="100" y="530"/>
      <point x="108" y="565"/>
      <point x="124" y="587" type="curve" smooth="yes"/>
      <point x="144" y="618"/>
      <point x="186" y="660"/>
      <point x="211" y="677" type="curve" smooth="yes"/>
      <point x="230" y="691"/>
      <point x="258" y="707"/>
      <point x="301" y="707" type="curve" smooth="yes"/>
      <point x="389" y="707"/>
      <point x="460" y="642"/>
      <point x="460" y="556" type="curve" smooth="yes"/>
      <point x="460" y="494"/>
      <point x="422" y="440"/>
      <point x="377" y="407" type="curve" smooth="yes"/>
      <point x="368" y="400"/>
      <point x="360" y="396"/>
      <point x="356" y="391" type="curve" smooth="yes"/>
      <point x="355" y="390"/>
      <point x="355" y="388"/>
      <point x="355" y="387" type="curve" smooth="yes"/>
      <point x="355" y="384"/>
      <point x="356" y="382"/>
      <point x="358" y="381" type="curve" smooth="yes"/>
      <point x="376" y="371"/>
      <point x="409" y="349"/>
      <point x="432" y="331" type="curve" smooth="yes"/>
      <point x="468" y="303"/>
      <point x="492" y="259"/>
      <point x="492" y="210" type="curve" smooth="yes"/>
      <point x="492" y="168"/>
      <point x="472" y="116"/>
      <point x="435" y="74" type="curve" smooth="yes"/>
      <point x="398" y="31"/>
      <point x="326" y="-16"/>
      <point x="268" y="-16" type="curve" smooth="yes"/>
      <point x="228" y="-16"/>
      <point x="163" y="5"/>
      <point x="121" y="49" type="curve" smooth="yes"/>
      <point x="84" y="87"/>
      <point x="65" y="132"/>
    </contour>
    <contour>
      <point x="400" y="187" type="curve" smooth="yes"/>
      <point x="400" y="225"/>
      <point x="379" y="256"/>
      <point x="352" y="273" type="curve" smooth="yes"/>
      <point x="324" y="291"/>
      <point x="292" y="307"/>
      <point x="252" y="327" type="curve" smooth="yes"/>
      <point x="250" y="328"/>
      <point x="249" y="328"/>
      <point x="247" y="328" type="curve" smooth="yes"/>
      <point x="245" y="328"/>
      <point x="244" y="328"/>
      <point x="242" y="327" type="curve" smooth="yes"/>
      <point x="222" y="320"/>
      <point x="155" y="282"/>
      <point x="155" y="212" type="curve" smooth="yes"/>
      <point x="155" y="136"/>
      <point x="216" y="76"/>
      <point x="304" y="76" type="curve" smooth="yes"/>
      <point x="370" y="76"/>
      <point x="400" y="119"/>
    </contour>
    <contour>
      <point x="300" y="422" type="curve" smooth="yes"/>
      <point x="340" y="444"/>
      <point x="374" y="479"/>
      <point x="374" y="523" type="curve" smooth="yes"/>
      <point x="374" y="573"/>
      <point x="318" y="620"/>
      <point x="259" y="620" type="curve" smooth="yes"/>
      <point x="210" y="620"/>
      <point x="190" y="569"/>
      <point x="190" y="528" type="curve" smooth="yes"/>
      <point x="190" y="476"/>
      <point x="237" y="444"/>
      <point x="271" y="428" type="curve" smooth="yes"/>
      <point x="276" y="426"/>
      <point x="286" y="420"/>
      <point x="292" y="420" type="curve" smooth="yes"/>
      <point x="296" y="420"/>
      <point x="298" y="421"/>
    </contour>
  </outline>
</glyph>
<glyph name="greater" format="1">
  <advance width="568"/>
  <unicode hex="003E"/>
  <outline>
    <contour>
      <point x="485" y="281" type="line"/>
      <point x="496" y="287"/>
      <point x="502" y="291"/>
      <point x="502" y="300" type="curve" smooth="yes"/>
      <point x="502" y="333" type="line" smooth="yes"/>
      <point x="502" y="343"/>
      <point x="495" y="347"/>
      <point x="485" y="352" type="curve" smooth="yes"/>
      <point x="449" y="371"/>
      <point x="347" y="424"/>
      <point x="302" y="450" type="curve" smooth="yes"/>
      <point x="253" y="478"/>
      <point x="113" y="561"/>
      <point x="113" y="561" type="curve" smooth="yes"/>
      <point x="111" y="562"/>
      <point x="108" y="563"/>
      <point x="105" y="563" type="curve" smooth="yes"/>
      <point x="101" y="563"/>
      <point x="96" y="561"/>
      <point x="92" y="554" type="curve" smooth="yes"/>
      <point x="71" y="514" type="line" smooth="yes"/>
      <point x="69" y="511"/>
      <point x="68" y="509"/>
      <point x="68" y="506" type="curve" smooth="yes"/>
      <point x="68" y="502"/>
      <point x="71" y="498"/>
      <point x="77" y="493" type="curve" smooth="yes"/>
      <point x="77" y="493"/>
      <point x="224" y="419"/>
      <point x="264" y="396" type="curve" smooth="yes"/>
      <point x="399" y="318" type="line"/>
      <point x="356" y="292"/>
      <point x="299" y="259"/>
      <point x="264" y="239" type="curve" smooth="yes"/>
      <point x="215" y="211"/>
      <point x="73" y="139"/>
      <point x="73" y="139" type="curve" smooth="yes"/>
      <point x="70" y="137"/>
      <point x="65" y="133"/>
      <point x="65" y="126" type="curve" smooth="yes"/>
      <point x="65" y="123"/>
      <point x="66" y="120"/>
      <point x="68" y="117" type="curve" smooth="yes"/>
      <point x="92" y="79" type="line" smooth="yes"/>
      <point x="95" y="74"/>
      <point x="97" y="71"/>
      <point x="102" y="71" type="curve" smooth="yes"/>
      <point x="105" y="71"/>
      <point x="109" y="72"/>
      <point x="113" y="74" type="curve" smooth="yes"/>
      <point x="113" y="74"/>
      <point x="263" y="164"/>
      <point x="305" y="186" type="curve" smooth="yes"/>
    </contour>
  </outline>
</glyph>
<glyph name="question" format="1">
  <advance width="408"/>
  <unicode hex="003F"/>
  <outline>
    <contour>
      <point x="129" y="285" type="curve" smooth="yes"/>
      <point x="129" y="315"/>
      <point x="145" y="339"/>
      <point x="157" y="355" type="curve" smooth="yes"/>
      <point x="197" y="409"/>
      <point x="254" y="465"/>
      <point x="254" y="528" type="curve" smooth="yes"/>
      <point x="254" y="617"/>
      <point x="166" y="629"/>
      <point x="83" y="640" type="curve" smooth="yes"/>
      <point x="75" y="641"/>
      <point x="72" y="645"/>
      <point x="72" y="650" type="curve" smooth="yes"/>
      <point x="72" y="660"/>
      <point x="116" y="708"/>
      <point x="126" y="717" type="curve" smooth="yes"/>
      <point x="131" y="722"/>
      <point x="136" y="722"/>
      <point x="142" y="722" type="curve" smooth="yes"/>
      <point x="164" y="722"/>
      <point x="226" y="712"/>
      <point x="267" y="688" type="curve" smooth="yes"/>
      <point x="307" y="665"/>
      <point x="338" y="622"/>
      <point x="338" y="572" type="curve" smooth="yes"/>
      <point x="338" y="494"/>
      <point x="282" y="427"/>
      <point x="232" y="370" type="curve" smooth="yes"/>
      <point x="217" y="353"/>
      <point x="212" y="336"/>
      <point x="212" y="320" type="curve" smooth="yes"/>
      <point x="212" y="308"/>
      <point x="218" y="288"/>
      <point x="236" y="267" type="curve" smooth="yes"/>
      <point x="240" y="263"/>
      <point x="242" y="259"/>
      <point x="242" y="255" type="curve" smooth="yes"/>
      <point x="242" y="251"/>
      <point x="241" y="250"/>
      <point x="239" y="243" type="curve" smooth="yes"/>
      <point x="235" y="231"/>
      <point x="212" y="200"/>
      <point x="204" y="193" type="curve" smooth="yes"/>
      <point x="200" y="189"/>
      <point x="196" y="188"/>
      <point x="193" y="188" type="curve" smooth="yes"/>
      <point x="189" y="188"/>
      <point x="186" y="190"/>
      <point x="184" y="191" type="curve" smooth="yes"/>
      <point x="159" y="210"/>
      <point x="129" y="246"/>
    </contour>
    <contour>
      <point x="133" y="36" type="curve" smooth="yes"/>
      <point x="130" y="40"/>
      <point x="128" y="45"/>
      <point x="128" y="48" type="curve" smooth="yes"/>
      <point x="128" y="51"/>
      <point x="129" y="54"/>
      <point x="131" y="56" type="curve" smooth="yes"/>
      <point x="150" y="75"/>
      <point x="170" y="98"/>
      <point x="180" y="113" type="curve" smooth="yes"/>
      <point x="183" y="117"/>
      <point x="186" y="118"/>
      <point x="189" y="118" type="curve" smooth="yes"/>
      <point x="193" y="118"/>
      <point x="195" y="116"/>
      <point x="198" y="114" type="curve" smooth="yes"/>
      <point x="210" y="106"/>
      <point x="246" y="68"/>
      <point x="256" y="62" type="curve" smooth="yes"/>
      <point x="260" y="59"/>
      <point x="264" y="55"/>
      <point x="264" y="50" type="curve" smooth="yes"/>
      <point x="264" y="46"/>
      <point x="262" y="44"/>
      <point x="259" y="38" type="curve" smooth="yes"/>
      <point x="253" y="26"/>
      <point x="221" y="-11"/>
      <point x="207" y="-20" type="curve" smooth="yes"/>
      <point x="205" y="-21"/>
      <point x="202" y="-22"/>
      <point x="200" y="-22" type="curve" smooth="yes"/>
      <point x="198" y="-22"/>
      <point x="195" y="-21"/>
      <point x="193" y="-20" type="curve" smooth="yes"/>
      <point x="178" y="-11"/>
      <point x="147" y="19"/>
    </contour>
  </outline>
</glyph>
<glyph name="bracketleft" format="1">
  <advance width="408"/>
  <unicode hex="005B"/>
  <outline>
    <contour>
      <point x="79" y="-70" type="curve" smooth="yes"/>
      <point x="79" y="56"/>
      <point x="85" y="182"/>
      <point x="85" y="308" type="curve" smooth="yes"/>
      <point x="85" y="410"/>
      <point x="75" y="571"/>
      <point x="75" y="612" type="curve" smooth="yes"/>
      <point x="75" y="653"/>
      <point x="94" y="693"/>
      <point x="138" y="693" type="curve"/>
      <point x="351" y="693" type="line"/>
      <point x="357" y="693"/>
      <point x="361" y="693"/>
      <point x="361" y="690" type="curve" smooth="yes"/>
      <point x="361" y="689"/>
      <point x="360" y="687"/>
      <point x="358" y="685" type="curve" smooth="yes"/>
      <point x="345" y="669"/>
      <point x="329" y="652"/>
      <point x="315" y="642" type="curve" smooth="yes"/>
      <point x="307" y="636"/>
      <point x="304" y="635"/>
      <point x="298" y="635" type="curve"/>
      <point x="187" y="635" type="line"/>
      <point x="174" y="635"/>
      <point x="155" y="624"/>
      <point x="154" y="601" type="curve" smooth="yes"/>
      <point x="152" y="562"/>
      <point x="151" y="342"/>
      <point x="151" y="302" type="curve" smooth="yes"/>
      <point x="151" y="266"/>
      <point x="156" y="14"/>
      <point x="157" y="-45" type="curve" smooth="yes"/>
      <point x="157" y="-69"/>
      <point x="169" y="-80"/>
      <point x="190" y="-80" type="curve"/>
      <point x="344" y="-80" type="line"/>
      <point x="355" y="-80"/>
      <point x="360" y="-81"/>
      <point x="360" y="-85" type="curve" smooth="yes"/>
      <point x="360" y="-87"/>
      <point x="359" y="-88"/>
      <point x="354" y="-95" type="curve" smooth="yes"/>
      <point x="345" y="-106"/>
      <point x="331" y="-123"/>
      <point x="316" y="-133" type="curve" smooth="yes"/>
      <point x="310" y="-137"/>
      <point x="304" y="-137"/>
      <point x="297" y="-137" type="curve" smooth="yes"/>
      <point x="165" y="-137" type="line"/>
      <point x="152" y="-137"/>
      <point x="120" y="-136"/>
      <point x="103" y="-123" type="curve" smooth="yes"/>
      <point x="86" y="-109"/>
      <point x="79" y="-93"/>
    </contour>
  </outline>
</glyph>
<glyph name="asciicircum" format="1">
  <advance width="568"/>
  <unicode hex="005E"/>
  <outline>
    <contour>
      <point x="320" y="682" type="line"/>
      <point x="314" y="693"/>
      <point x="310" y="699"/>
      <point x="301" y="699" type="curve" smooth="yes"/>
      <point x="268" y="699" type="line" smooth="yes"/>
      <point x="258" y="699"/>
      <point x="254" y="692"/>
      <point x="249" y="682" type="curve" smooth="yes"/>
      <point x="230" y="646"/>
      <point x="177" y="544"/>
      <point x="151" y="499" type="curve" smooth="yes"/>
      <point x="123" y="450"/>
      <point x="40" y="311"/>
      <point x="40" y="311" type="curve"/>
      <point x="39" y="309"/>
      <point x="38" y="306"/>
      <point x="38" y="303" type="curve" smooth="yes"/>
      <point x="38" y="299"/>
      <point x="40" y="294"/>
      <point x="47" y="290" type="curve" smooth="yes"/>
      <point x="87" y="268" type="line" smooth="yes"/>
      <point x="90" y="266"/>
      <point x="92" y="265"/>
      <point x="95" y="265" type="curve" smooth="yes"/>
      <point x="99" y="265"/>
      <point x="103" y="268"/>
      <point x="108" y="274" type="curve"/>
      <point x="108" y="274"/>
      <point x="186" y="424"/>
      <point x="209" y="464" type="curve" smooth="yes"/>
      <point x="283" y="596" type="line"/>
      <point x="309" y="553"/>
      <point x="339" y="497"/>
      <point x="359" y="462" type="curve" smooth="yes"/>
      <point x="387" y="413"/>
      <point x="462" y="270"/>
      <point x="462" y="270" type="curve"/>
      <point x="464" y="267"/>
      <point x="468" y="262"/>
      <point x="475" y="262" type="curve" smooth="yes"/>
      <point x="478" y="262"/>
      <point x="481" y="263"/>
      <point x="484" y="265" type="curve" smooth="yes"/>
      <point x="522" y="289" type="line" smooth="yes"/>
      <point x="527" y="292"/>
      <point x="530" y="294"/>
      <point x="530" y="299" type="curve" smooth="yes"/>
      <point x="530" y="302"/>
      <point x="529" y="306"/>
      <point x="527" y="310" type="curve"/>
      <point x="527" y="310"/>
      <point x="437" y="460"/>
      <point x="415" y="502" type="curve" smooth="yes"/>
    </contour>
  </outline>
</glyph>
<glyph name="verticalbar" format="1">
  <advance width="326"/>
  <unicode hex="007C"/>
  <outline>
    <contour>
      <point x="150" y="-30" type="line"/>
      <point x="142" y="-30"/>
      <point x="133" y="-26"/>
      <point x="133" y="-14" type="curve"/>
      <point x="133" y="566" type="line"/>
      <point x="133" y="578"/>
      <point x="142" y="582"/>
      <point x="150" y="582" type="curve" smooth="yes"/>
      <point x="176" y="582" type="line" smooth="yes"/>
      <point x="184" y="582"/>
      <point x="192" y="577"/>
      <point x="192" y="566" type="curve"/>
      <point x="192" y="-14" type="line"/>
      <point x="192" y="-24"/>
      <point x="185" y="-30"/>
      <point x="176" y="-30" type="curve" smooth="yes"/>
    </contour>
  </outline>
</glyph>
<glyph name="braceright" format="1">
  <advance width="408"/>
  <unicode hex="007D"/>
  <outline>
    <contour>
      <point x="144" y="636" type="line"/>
      <point x="194" y="636"/>
      <point x="207" y="592"/>
      <point x="207" y="555" type="curve" smooth="yes"/>
      <point x="207" y="531"/>
      <point x="204" y="471"/>
      <point x="204" y="425" type="curve" smooth="yes"/>
      <point x="204" y="353"/>
      <point x="223" y="307"/>
      <point x="266" y="285" type="curve" smooth="yes"/>
      <point x="268" y="284"/>
      <point x="269" y="282"/>
      <point x="269" y="279" type="curve" smooth="yes"/>
      <point x="269" y="276"/>
      <point x="268" y="274"/>
      <point x="266" y="273" type="curve" smooth="yes"/>
      <point x="223" y="251"/>
      <point x="204" y="205"/>
      <point x="204" y="133" type="curve" smooth="yes"/>
      <point x="204" y="87"/>
      <point x="207" y="27"/>
      <point x="207" y="3" type="curve" smooth="yes"/>
      <point x="207" y="-34"/>
      <point x="193" y="-78"/>
      <point x="143" y="-78" type="curve" smooth="yes"/>
      <point x="110" y="-78" type="line" smooth="yes"/>
      <point x="104" y="-78"/>
      <point x="99" y="-80"/>
      <point x="91" y="-87" type="curve" smooth="yes"/>
      <point x="77" y="-99"/>
      <point x="69" y="-105"/>
      <point x="53" y="-121" type="curve" smooth="yes"/>
      <point x="47" y="-127"/>
      <point x="47" y="-131"/>
      <point x="47" y="-132" type="curve" smooth="yes"/>
      <point x="47" y="-135"/>
      <point x="51" y="-137"/>
      <point x="57" y="-137" type="curve" smooth="yes"/>
      <point x="171" y="-137" type="line" smooth="yes"/>
      <point x="254" y="-137"/>
      <point x="284" y="-80"/>
      <point x="284" y="-2" type="curve" smooth="yes"/>
      <point x="284" y="37"/>
      <point x="276" y="92"/>
      <point x="276" y="138" type="curve" smooth="yes"/>
      <point x="276" y="177"/>
      <point x="290" y="218"/>
      <point x="327" y="233" type="curve" smooth="yes"/>
      <point x="332" y="235"/>
      <point x="338" y="240"/>
      <point x="338" y="247" type="curve" smooth="yes"/>
      <point x="338" y="311" type="line" smooth="yes"/>
      <point x="338" y="318"/>
      <point x="332" y="323"/>
      <point x="327" y="325" type="curve" smooth="yes"/>
      <point x="290" y="340"/>
      <point x="276" y="381"/>
      <point x="276" y="420" type="curve" smooth="yes"/>
      <point x="276" y="466"/>
      <point x="283" y="521"/>
      <point x="283" y="560" type="curve" smooth="yes"/>
      <point x="283" y="638"/>
      <point x="253" y="695"/>
      <point x="170" y="695" type="curve" smooth="yes"/>
      <point x="110" y="695" type="line" smooth="yes"/>
      <point x="104" y="695"/>
      <point x="99" y="693"/>
      <point x="91" y="686" type="curve" smooth="yes"/>
      <point x="77" y="674"/>
      <point x="69" y="668"/>
      <point x="53" y="652" type="curve" smooth="yes"/>
      <point x="47" y="646"/>
      <point x="47" y="642"/>
      <point x="47" y="641" type="curve" smooth="yes"/>
      <point x="47" y="638"/>
      <point x="51" y="636"/>
      <point x="57" y="636" type="curve" smooth="yes"/>
    </contour>
  </outline>
</glyph>
<glyph name="guillemotleft" format="1">
  <advance width="408"/>
  <unicode hex="00AB"/>
  <outline>
    <contour>
      <point x="97" y="359" type="curve" smooth="yes"/>
      <point x="81" y="339"/>
      <point x="56" y="303"/>
      <point x="44" y="278" type="curve" smooth="yes"/>
      <point x="42" y="274"/>
      <point x="40" y="268"/>
      <point x="40" y="263" type="curve" smooth="yes"/>
      <point x="40" y="257"/>
      <point x="42" y="251"/>
      <point x="49" y="240" type="curve" smooth="yes"/>
      <point x="64" y="215"/>
      <point x="98" y="177"/>
      <point x="125" y="154" type="curve" smooth="yes"/>
      <point x="130" y="150"/>
      <point x="133" y="149"/>
      <point x="135" y="149" type="curve" smooth="yes"/>
      <point x="138" y="149"/>
      <point x="142" y="151"/>
      <point x="145" y="154" type="curve" smooth="yes"/>
      <point x="162" y="173"/>
      <point x="175" y="194"/>
      <point x="182" y="206" type="curve"/>
      <point x="182" y="206"/>
      <point x="188" y="217"/>
      <point x="188" y="222" type="curve" smooth="yes"/>
      <point x="188" y="225"/>
      <point x="187" y="230"/>
      <point x="184" y="233" type="curve"/>
      <point x="139" y="279" type="line"/>
      <point x="136" y="282"/>
      <point x="134" y="288"/>
      <point x="134" y="291" type="curve" smooth="yes"/>
      <point x="134" y="294"/>
      <point x="134" y="298"/>
      <point x="137" y="303" type="curve" smooth="yes"/>
      <point x="149" y="327"/>
      <point x="165" y="356"/>
      <point x="177" y="381" type="curve" smooth="yes"/>
      <point x="179" y="385"/>
      <point x="180" y="389"/>
      <point x="180" y="392" type="curve" smooth="yes"/>
      <point x="180" y="396"/>
      <point x="176" y="399"/>
      <point x="171" y="399" type="curve" smooth="yes"/>
      <point x="169" y="399"/>
      <point x="166" y="399"/>
      <point x="162" y="397" type="curve" smooth="yes"/>
      <point x="154" y="394"/>
      <point x="127" y="381"/>
      <point x="122" y="378" type="curve" smooth="yes"/>
      <point x="115" y="374"/>
      <point x="106" y="371"/>
    </contour>
    <contour>
      <point x="266" y="359" type="curve" smooth="yes"/>
      <point x="250" y="339"/>
      <point x="225" y="303"/>
      <point x="213" y="278" type="curve" smooth="yes"/>
      <point x="211" y="274"/>
      <point x="209" y="268"/>
      <point x="209" y="263" type="curve" smooth="yes"/>
      <point x="209" y="257"/>
      <point x="211" y="251"/>
      <point x="218" y="240" type="curve" smooth="yes"/>
      <point x="233" y="215"/>
      <point x="267" y="177"/>
      <point x="294" y="154" type="curve" smooth="yes"/>
      <point x="299" y="150"/>
      <point x="302" y="149"/>
      <point x="304" y="149" type="curve" smooth="yes"/>
      <point x="307" y="149"/>
      <point x="311" y="151"/>
      <point x="314" y="154" type="curve" smooth="yes"/>
      <point x="331" y="173"/>
      <point x="344" y="194"/>
      <point x="351" y="206" type="curve"/>
      <point x="351" y="206"/>
      <point x="357" y="217"/>
      <point x="357" y="222" type="curve" smooth="yes"/>
      <point x="357" y="225"/>
      <point x="356" y="230"/>
      <point x="353" y="233" type="curve" smooth="yes"/>
      <point x="308" y="279" type="line" smooth="yes"/>
      <point x="305" y="282"/>
      <point x="303" y="288"/>
      <point x="303" y="291" type="curve" smooth="yes"/>
      <point x="303" y="294"/>
      <point x="303" y="298"/>
      <point x="306" y="303" type="curve" smooth="yes"/>
      <point x="318" y="327"/>
      <point x="334" y="356"/>
      <point x="346" y="381" type="curve" smooth="yes"/>
      <point x="348" y="385"/>
      <point x="349" y="389"/>
      <point x="349" y="392" type="curve" smooth="yes"/>
      <point x="349" y="396"/>
      <point x="345" y="399"/>
      <point x="340" y="399" type="curve" smooth="yes"/>
      <point x="338" y="399"/>
      <point x="335" y="399"/>
      <point x="331" y="397" type="curve" smooth="yes"/>
      <point x="323" y="394"/>
      <point x="296" y="381"/>
      <point x="291" y="378" type="curve" smooth="yes"/>
      <point x="284" y="374"/>
      <point x="275" y="371"/>
    </contour>
  </outline>
</glyph>
<glyph name="uni0308" format="1">
  <advance width="0"/>
  <unicode hex="0308"/>
  <outline>
    <contour>
      <point x="-319" y="684" type="curve" smooth="yes"/>
      <point x="-308" y="669"/>
      <point x="-287" y="651"/>
      <point x="-271" y="641" type="curve" smooth="yes"/>
      <point x="-270" y="641"/>
      <point x="-267" y="640"/>
      <point x="-264" y="640" type="curve" smooth="yes"/>
      <point x="-262" y="640"/>
      <point x="-259" y="641"/>
      <point x="-258" y="643" type="curve" smooth="yes"/>
      <point x="-247" y="654"/>
      <point x="-230" y="672"/>
      <point x="-219" y="687" type="curve" smooth="yes"/>
      <point x="-218" y="690"/>
      <point x="-216" y="693"/>
      <point x="-216" y="696" type="curve" smooth="yes"/>
      <point x="-216" y="700"/>
      <point x="-219" y="703"/>
      <point x="-222" y="706" type="curve" smooth="yes"/>
      <point x="-233" y="713"/>
      <point x="-255" y="732"/>
      <point x="-266" y="742" type="curve" smooth="yes"/>
      <point x="-270" y="745"/>
      <point x="-271" y="746"/>
      <point x="-274" y="746" type="curve" smooth="yes"/>
      <point x="-277" y="746"/>
      <point x="-280" y="745"/>
      <point x="-282" y="742" type="curve" smooth="yes"/>
      <point x="-289" y="734"/>
      <point x="-310" y="710"/>
      <point x="-320" y="700" type="curve" smooth="yes"/>
      <point x="-322" y="698"/>
      <point x="-323" y="695"/>
      <point x="-323" y="692" type="curve" smooth="yes"/>
      <point x="-323" y="690"/>
      <point x="-321" y="687"/>
    </contour>
    <contour>
      <point x="-153" y="686" type="curve" smooth="yes"/>
      <point x="-141" y="671"/>
      <point x="-121" y="653"/>
      <point x="-104" y="644" type="curve" smooth="yes"/>
      <point x="-103" y="642"/>
      <point x="-101" y="641"/>
      <point x="-98" y="641" type="curve" smooth="yes"/>
      <point x="-96" y="641"/>
      <point x="-93" y="643"/>
      <point x="-91" y="644" type="curve" smooth="yes"/>
      <point x="-80" y="656"/>
      <point x="-63" y="673"/>
      <point x="-53" y="688" type="curve" smooth="yes"/>
      <point x="-52" y="691"/>
      <point x="-50" y="695"/>
      <point x="-50" y="699" type="curve" smooth="yes"/>
      <point x="-50" y="702"/>
      <point x="-52" y="705"/>
      <point x="-55" y="707" type="curve" smooth="yes"/>
      <point x="-67" y="715"/>
      <point x="-88" y="734"/>
      <point x="-100" y="744" type="curve" smooth="yes"/>
      <point x="-103" y="746"/>
      <point x="-104" y="748"/>
      <point x="-108" y="748" type="curve" smooth="yes"/>
      <point x="-111" y="748"/>
      <point x="-114" y="746"/>
      <point x="-116" y="743" type="curve" smooth="yes"/>
      <point x="-122" y="735"/>
      <point x="-144" y="712"/>
      <point x="-154" y="702" type="curve" smooth="yes"/>
      <point x="-156" y="699"/>
      <point x="-156" y="696"/>
      <point x="-156" y="694" type="curve" smooth="yes"/>
      <point x="-156" y="691"/>
      <point x="-155" y="688"/>
    </contour>
  </outline>
</glyph>
<glyph name="uni059B" format="1">
  <advance width="0"/>
  <unicode hex="059B"/>
  <outline>
    <contour>
      <point x="131" y="-126" type="curve" smooth="yes"/>
      <point x="131" y="-149"/>
      <point x="113" y="-167"/>
      <point x="91" y="-167" type="curve" smooth="yes"/>
      <point x="68" y="-167"/>
      <point x="50" y="-149"/>
      <point x="50" y="-126" type="curve" smooth="yes"/>
      <point x="50" y="-104"/>
      <point x="68" y="-85"/>
      <point x="91" y="-85" type="curve" smooth="yes"/>
      <point x="113" y="-85"/>
      <point x="131" y="-104"/>
    </contour>
    <contour>
      <point x="131" y="-292" type="curve" smooth="yes"/>
      <point x="220" y="-257"/>
      <point x="238" y="-181"/>
      <point x="238" y="-88" type="curve" smooth="yes"/>
      <point x="238" y="-76"/>
      <point x="232" y="-73"/>
      <point x="223" y="-73" type="curve" smooth="yes"/>
      <point x="199" y="-73" type="line" smooth="yes"/>
      <point x="190" y="-73"/>
      <point x="185" y="-76"/>
      <point x="185" y="-88" type="curve" smooth="yes"/>
      <point x="185" y="-171"/>
      <point x="167" y="-213"/>
      <point x="104" y="-241" type="curve" smooth="yes"/>
      <point x="98" y="-244"/>
      <point x="95" y="-247"/>
      <point x="95" y="-251" type="curve" smooth="yes"/>
      <point x="95" y="-254"/>
      <point x="96" y="-259"/>
      <point x="98" y="-262" type="curve"/>
      <point x="109" y="-287" type="line"/>
      <point x="112" y="-292"/>
      <point x="116" y="-295"/>
      <point x="121" y="-295" type="curve" smooth="yes"/>
      <point x="124" y="-295"/>
      <point x="127" y="-294"/>
    </contour>
  </outline>
</glyph>
<glyph name="patahhebrew" format="1">
  <advance width="0"/>
  <unicode hex="05B7"/>
  <outline>
    <contour>
      <point x="57" y="-94" type="line"/>
      <point x="57" y="-86"/>
      <point x="61" y="-78"/>
      <point x="73" y="-77" type="curve" smooth="yes"/>
      <point x="112" y="-75"/>
      <point x="203" y="-73"/>
      <point x="203" y="-73" type="curve" smooth="yes"/>
      <point x="203" y="-73"/>
      <point x="289" y="-75"/>
      <point x="335" y="-77" type="curve" smooth="yes"/>
      <point x="347" y="-78"/>
      <point x="351" y="-86"/>
      <point x="351" y="-94" type="curve" smooth="yes"/>
      <point x="351" y="-120" type="line" smooth="yes"/>
      <point x="351" y="-128"/>
      <point x="346" y="-136"/>
      <point x="335" y="-136" type="curve" smooth="yes"/>
      <point x="329" y="-136"/>
      <point x="243" y="-140"/>
      <point x="204" y="-140" type="curve" smooth="yes"/>
      <point x="165" y="-140"/>
      <point x="88" y="-136"/>
      <point x="73" y="-136" type="curve" smooth="yes"/>
      <point x="63" y="-136"/>
      <point x="57" y="-129"/>
      <point x="57" y="-120" type="curve" smooth="yes"/>
    </contour>
  </outline>
</glyph>
<glyph name="qamatshebrew" format="1">
  <advance width="0"/>
  <unicode hex="05B8"/>
  <outline>
    <contour>
      <point x="161" y="-142" type="curve" smooth="yes"/>
      <point x="128" y="-140"/>
      <point x="83" y="-139"/>
      <point x="72" y="-138" type="curve" smooth="yes"/>
      <point x="62" y="-137"/>
      <point x="58" y="-131"/>
      <point x="58" y="-121" type="curve" smooth="yes"/>
      <point x="58" y="-93" type="line" smooth="yes"/>
      <point x="58" y="-85"/>
      <point x="60" y="-77"/>
      <point x="72" y="-77" type="curve" smooth="yes"/>
      <point x="115" y="-76"/>
      <point x="162" y="-73"/>
      <point x="204" y="-73" type="curve" smooth="yes"/>
      <point x="243" y="-73"/>
      <point x="323" y="-77"/>
      <point x="336" y="-77" type="curve" smooth="yes"/>
      <point x="347" y="-77"/>
      <point x="351" y="-85"/>
      <point x="351" y="-93" type="curve" smooth="yes"/>
      <point x="351" y="-121" type="line" smooth="yes"/>
      <point x="351" y="-129"/>
      <point x="346" y="-136"/>
      <point x="336" y="-138" type="curve" smooth="yes"/>
      <point x="325" y="-140"/>
      <point x="282" y="-141"/>
      <point x="249" y="-142" type="curve" smooth="yes"/>
      <point x="242" y="-142"/>
      <point x="241" y="-146"/>
      <point x="240" y="-155" type="curve" smooth="yes"/>
      <point x="238" y="-170"/>
      <point x="232" y="-247"/>
      <point x="231" y="-253" type="curve" smooth="yes"/>
      <point x="229" y="-265"/>
      <point x="226" y="-268"/>
      <point x="217" y="-268" type="curve" smooth="yes"/>
      <point x="193" y="-268" type="line" smooth="yes"/>
      <point x="184" y="-268"/>
      <point x="181" y="-265"/>
      <point x="179" y="-253" type="curve" smooth="yes"/>
      <point x="177" y="-238"/>
      <point x="172" y="-171"/>
      <point x="170" y="-155" type="curve" smooth="yes"/>
      <point x="169" y="-144"/>
      <point x="165" y="-142"/>
    </contour>
  </outline>
</glyph>
<glyph name="qubutshebrew" format="1">
  <advance width="0"/>
  <unicode hex="05BB"/>
  <outline>
    <contour>
      <point x="132" y="-106" type="curve" smooth="yes"/>
      <point x="132" y="-129"/>
      <point x="114" y="-147"/>
      <point x="91" y="-147" type="curve" smooth="yes"/>
      <point x="69" y="-147"/>
      <point x="50" y="-129"/>
      <point x="50" y="-106" type="curve" smooth="yes"/>
      <point x="50" y="-84"/>
      <point x="69" y="-66"/>
      <point x="91" y="-66" type="curve" smooth="yes"/>
      <point x="114" y="-66"/>
      <point x="132" y="-84"/>
    </contour>
    <contour>
      <point x="358" y="-230" type="curve" smooth="yes"/>
      <point x="358" y="-253"/>
      <point x="340" y="-271"/>
      <point x="318" y="-271" type="curve" smooth="yes"/>
      <point x="295" y="-271"/>
      <point x="277" y="-253"/>
      <point x="277" y="-230" type="curve" smooth="yes"/>
      <point x="277" y="-208"/>
      <point x="295" y="-190"/>
      <point x="318" y="-190" type="curve" smooth="yes"/>
      <point x="340" y="-190"/>
      <point x="358" y="-208"/>
    </contour>
    <contour>
      <point x="245" y="-168" type="curve" smooth="yes"/>
      <point x="245" y="-191"/>
      <point x="227" y="-209"/>
      <point x="204" y="-209" type="curve" smooth="yes"/>
      <point x="182" y="-209"/>
      <point x="164" y="-191"/>
      <point x="164" y="-168" type="curve" smooth="yes"/>
      <point x="164" y="-146"/>
      <point x="182" y="-128"/>
      <point x="204" y="-128" type="curve" smooth="yes"/>
      <point x="227" y="-128"/>
      <point x="245" y="-146"/>
    </contour>
  </outline>
</glyph>
<glyph name="afii67842" format="1">
  <advance width="326"/>
  <unicode hex="05C0"/>
  <outline>
    <contour>
      <point x="137" y="-35" type="curve" smooth="yes"/>
      <point x="137" y="-43"/>
      <point x="139" y="-52"/>
      <point x="151" y="-52" type="curve" smooth="yes"/>
      <point x="175" y="-52" type="line" smooth="yes"/>
      <point x="186" y="-52"/>
      <point x="190" y="-44"/>
      <point x="190" y="-36" type="curve" smooth="yes"/>
      <point x="194" y="143"/>
      <point x="196" y="214"/>
      <point x="196" y="278" type="curve" smooth="yes"/>
      <point x="196" y="360"/>
      <point x="193" y="476"/>
      <point x="190" y="606" type="curve" smooth="yes"/>
      <point x="190" y="614"/>
      <point x="186" y="622"/>
      <point x="175" y="622" type="curve" smooth="yes"/>
      <point x="151" y="622" type="line" smooth="yes"/>
      <point x="139" y="622"/>
      <point x="137" y="613"/>
      <point x="137" y="605" type="curve" smooth="yes"/>
      <point x="133" y="478"/>
      <point x="130" y="360"/>
      <point x="130" y="278" type="curve" smooth="yes"/>
      <point x="130" y="214"/>
      <point x="134" y="119"/>
    </contour>
  </outline>
</glyph>
<glyph name="afii57658" format="1">
  <advance width="388"/>
  <unicode hex="05C3"/>
  <outline>
    <contour>
      <point x="112" y="277" type="curve" smooth="yes"/>
      <point x="110" y="279"/>
      <point x="110" y="282"/>
      <point x="110" y="284" type="curve" smooth="yes"/>
      <point x="110" y="288"/>
      <point x="111" y="291"/>
      <point x="113" y="293" type="curve" smooth="yes"/>
      <point x="127" y="307"/>
      <point x="158" y="338"/>
      <point x="167" y="352" type="curve" smooth="yes"/>
      <point x="169" y="354"/>
      <point x="171" y="356"/>
      <point x="174" y="356" type="curve" smooth="yes"/>
      <point x="176" y="356"/>
      <point x="178" y="356"/>
      <point x="179" y="354" type="curve" smooth="yes"/>
      <point x="195" y="335"/>
      <point x="225" y="309"/>
      <point x="242" y="297" type="curve" smooth="yes"/>
      <point x="247" y="294"/>
      <point x="248" y="290"/>
      <point x="248" y="287" type="curve" smooth="yes"/>
      <point x="248" y="284"/>
      <point x="247" y="282"/>
      <point x="246" y="280" type="curve" smooth="yes"/>
      <point x="238" y="267"/>
      <point x="202" y="229"/>
      <point x="191" y="218" type="curve" smooth="yes"/>
      <point x="189" y="216"/>
      <point x="187" y="215"/>
      <point x="185" y="215" type="curve" smooth="yes"/>
      <point x="183" y="215"/>
      <point x="181" y="216"/>
      <point x="179" y="217" type="curve" smooth="yes"/>
      <point x="156" y="232"/>
      <point x="120" y="266"/>
    </contour>
    <contour>
      <point x="112" y="37" type="curve" smooth="yes"/>
      <point x="110" y="39"/>
      <point x="110" y="42"/>
      <point x="110" y="44" type="curve" smooth="yes"/>
      <point x="110" y="48"/>
      <point x="111" y="51"/>
      <point x="113" y="53" type="curve" smooth="yes"/>
      <point x="127" y="67"/>
      <point x="158" y="98"/>
      <point x="167" y="112" type="curve" smooth="yes"/>
      <point x="169" y="114"/>
      <point x="170" y="116"/>
      <point x="173" y="116" type="curve" smooth="yes"/>
      <point x="175" y="116"/>
      <point x="178" y="115"/>
      <point x="179" y="113" type="curve" smooth="yes"/>
      <point x="195" y="94"/>
      <point x="225" y="68"/>
      <point x="242" y="56" type="curve" smooth="yes"/>
      <point x="247" y="53"/>
      <point x="248" y="50"/>
      <point x="248" y="47" type="curve" smooth="yes"/>
      <point x="248" y="44"/>
      <point x="246" y="42"/>
      <point x="245" y="40" type="curve" smooth="yes"/>
      <point x="237" y="27"/>
      <point x="202" y="-11"/>
      <point x="191" y="-22" type="curve" smooth="yes"/>
      <point x="189" y="-24"/>
      <point x="186" y="-25"/>
      <point x="184" y="-25" type="curve" smooth="yes"/>
      <point x="182" y="-25"/>
      <point x="181" y="-24"/>
      <point x="179" y="-23" type="curve" smooth="yes"/>
      <point x="156" y="-8"/>
      <point x="120" y="26"/>
    </contour>
  </outline>
</glyph>
<glyph name="gimelhebrew" format="1">
  <advance width="407"/>
  <unicode hex="05D2"/>
  <outline>
    <contour>
      <point x="74" y="80" type="curve" smooth="yes"/>
      <point x="78" y="88"/>
      <point x="80" y="87"/>
      <point x="84" y="89" type="curve" smooth="yes"/>
      <point x="87" y="91"/>
      <point x="127" y="102"/>
      <point x="156" y="125" type="curve" smooth="yes"/>
      <point x="193" y="155"/>
      <point x="222" y="188"/>
      <point x="241" y="218" type="curve" smooth="yes"/>
      <point x="244" y="223"/>
      <point x="245" y="227"/>
      <point x="245" y="233" type="curve" smooth="yes"/>
      <point x="245" y="237"/>
      <point x="245" y="243"/>
      <point x="244" y="249" type="curve" smooth="yes"/>
      <point x="239" y="274"/>
      <point x="222" y="359"/>
      <point x="213" y="382" type="curve" smooth="yes"/>
      <point x="205" y="402"/>
      <point x="199" y="413"/>
      <point x="181" y="429" type="curve" smooth="yes"/>
      <point x="154" y="453"/>
      <point x="99" y="482"/>
      <point x="55" y="502" type="curve" smooth="yes"/>
      <point x="49" y="505"/>
      <point x="45" y="508"/>
      <point x="45" y="514" type="curve" smooth="yes"/>
      <point x="45" y="518"/>
      <point x="47" y="521"/>
      <point x="53" y="530" type="curve" smooth="yes"/>
      <point x="68" y="551"/>
      <point x="89" y="582"/>
      <point x="100" y="595" type="curve" smooth="yes"/>
      <point x="103" y="599"/>
      <point x="107" y="603"/>
      <point x="110" y="603" type="curve" smooth="yes"/>
      <point x="113" y="603"/>
      <point x="119" y="600"/>
      <point x="126" y="596" type="curve" smooth="yes"/>
      <point x="160" y="576"/>
      <point x="215" y="546"/>
      <point x="247" y="516" type="curve" smooth="yes"/>
      <point x="275" y="489"/>
      <point x="291" y="447"/>
      <point x="296" y="409" type="curve" smooth="yes"/>
      <point x="311" y="293"/>
      <point x="323" y="204"/>
      <point x="336" y="99" type="curve" smooth="yes"/>
      <point x="337" y="91"/>
      <point x="338" y="80"/>
      <point x="338" y="76" type="curve" smooth="yes"/>
      <point x="338" y="71"/>
      <point x="338" y="67"/>
      <point x="336" y="60" type="curve" smooth="yes"/>
      <point x="331" y="39"/>
      <point x="314" y="-5"/>
      <point x="304" y="-22" type="curve" smooth="yes"/>
      <point x="303" y="-24"/>
      <point x="300" y="-26"/>
      <point x="297" y="-26" type="curve" smooth="yes"/>
      <point x="295" y="-26"/>
      <point x="292" y="-25"/>
      <point x="290" y="-22" type="curve" smooth="yes"/>
      <point x="280" y="-6"/>
      <point x="263" y="131"/>
      <point x="259" y="153" type="curve" smooth="yes"/>
      <point x="259" y="155"/>
      <point x="257" y="157"/>
      <point x="255" y="157" type="curve" smooth="yes"/>
      <point x="253" y="157"/>
      <point x="251" y="155"/>
      <point x="248" y="150" type="curve" smooth="yes"/>
      <point x="227" y="108"/>
      <point x="199" y="67"/>
      <point x="159" y="36" type="curve" smooth="yes"/>
      <point x="132" y="15"/>
      <point x="74" y="-14"/>
      <point x="48" y="-14" type="curve" smooth="yes"/>
      <point x="44" y="-14"/>
      <point x="41" y="-12"/>
      <point x="41" y="-8" type="curve" smooth="yes"/>
      <point x="41" y="-3"/>
      <point x="70" y="72"/>
    </contour>
  </outline>
</glyph>
<glyph name="dalethebrew" format="1">
  <advance width="567"/>
  <unicode hex="05D3"/>
  <outline>
    <contour>
      <point x="326" y="432" type="curve" smooth="yes"/>
      <point x="326" y="445"/>
      <point x="322" y="458"/>
      <point x="308" y="458" type="curve" smooth="yes"/>
      <point x="58" y="458" type="line" smooth="yes"/>
      <point x="44" y="458"/>
      <point x="35" y="466"/>
      <point x="35" y="475" type="curve" smooth="yes"/>
      <point x="35" y="488"/>
      <point x="101" y="582"/>
      <point x="114" y="597" type="curve" smooth="yes"/>
      <point x="117" y="601"/>
      <point x="122" y="603"/>
      <point x="126" y="603" type="curve" smooth="yes"/>
      <point x="134" y="603"/>
      <point x="137" y="594"/>
      <point x="138" y="586" type="curve" smooth="yes"/>
      <point x="142" y="560"/>
      <point x="151" y="552"/>
      <point x="165" y="552" type="curve" smooth="yes"/>
      <point x="318" y="552" type="line" smooth="yes"/>
      <point x="321" y="552"/>
      <point x="324" y="553"/>
      <point x="327" y="557" type="curve" smooth="yes"/>
      <point x="342" y="575"/>
      <point x="378" y="603"/>
      <point x="395" y="603" type="curve" smooth="yes"/>
      <point x="404" y="603"/>
      <point x="406" y="598"/>
      <point x="406" y="592" type="curve" smooth="yes"/>
      <point x="406" y="584"/>
      <point x="407" y="565"/>
      <point x="413" y="559" type="curve" smooth="yes"/>
      <point x="417" y="554"/>
      <point x="425" y="552"/>
      <point x="435" y="552" type="curve" smooth="yes"/>
      <point x="480" y="552" type="line" smooth="yes"/>
      <point x="485" y="552"/>
      <point x="497" y="550"/>
      <point x="497" y="539" type="curve" smooth="yes"/>
      <point x="497" y="537"/>
      <point x="496" y="533"/>
      <point x="495" y="530" type="curve" smooth="yes"/>
      <point x="487" y="512"/>
      <point x="472" y="482"/>
      <point x="460" y="465" type="curve" smooth="yes"/>
      <point x="457" y="460"/>
      <point x="453" y="458"/>
      <point x="446" y="458" type="curve" smooth="yes"/>
      <point x="420" y="458"/>
      <point x="408" y="439"/>
      <point x="407" y="422" type="curve" smooth="yes"/>
      <point x="406" y="409"/>
      <point x="406" y="388"/>
      <point x="406" y="366" type="curve" smooth="yes"/>
      <point x="406" y="262"/>
      <point x="417" y="116"/>
      <point x="417" y="83" type="curve" smooth="yes"/>
      <point x="417" y="70"/>
      <point x="415" y="61"/>
      <point x="410" y="52" type="curve" smooth="yes"/>
      <point x="396" y="25"/>
      <point x="387" y="11"/>
      <point x="368" y="-17" type="curve" smooth="yes"/>
      <point x="365" y="-21"/>
      <point x="360" y="-26"/>
      <point x="356" y="-26" type="curve" smooth="yes"/>
      <point x="351" y="-26"/>
      <point x="349" y="-20"/>
      <point x="348" y="-11" type="curve" smooth="yes"/>
      <point x="336" y="136"/>
      <point x="330" y="286"/>
    </contour>
  </outline>
</glyph>
<glyph name="vavhebrew" format="1">
  <advance width="407"/>
  <unicode hex="05D5"/>
  <outline>
    <contour>
      <point x="234" y="352" type="curve" smooth="yes"/>
      <point x="232" y="371"/>
      <point x="227" y="388"/>
      <point x="207" y="407" type="curve" smooth="yes"/>
      <point x="169" y="441"/>
      <point x="99" y="482"/>
      <point x="60" y="501" type="curve" smooth="yes"/>
      <point x="54" y="505"/>
      <point x="50" y="508"/>
      <point x="50" y="514" type="curve" smooth="yes"/>
      <point x="50" y="518"/>
      <point x="53" y="522"/>
      <point x="56" y="527" type="curve" smooth="yes"/>
      <point x="72" y="552"/>
      <point x="105" y="590"/>
      <point x="113" y="598" type="curve" smooth="yes"/>
      <point x="116" y="601"/>
      <point x="118" y="603"/>
      <point x="121" y="603" type="curve" smooth="yes"/>
      <point x="124" y="603"/>
      <point x="128" y="601"/>
      <point x="134" y="598" type="curve" smooth="yes"/>
      <point x="169" y="580"/>
      <point x="214" y="552"/>
      <point x="264" y="510" type="curve" smooth="yes"/>
      <point x="301" y="479"/>
      <point x="311" y="445"/>
      <point x="314" y="412" type="curve" smooth="yes"/>
      <point x="316" y="390"/>
      <point x="319" y="312"/>
      <point x="319" y="262" type="curve" smooth="yes"/>
      <point x="319" y="201"/>
      <point x="319" y="130"/>
      <point x="316" y="65" type="curve" smooth="yes"/>
      <point x="316" y="57"/>
      <point x="312" y="49"/>
      <point x="309" y="43" type="curve" smooth="yes"/>
      <point x="296" y="19"/>
      <point x="269" y="-14"/>
      <point x="259" y="-23" type="curve" smooth="yes"/>
      <point x="256" y="-25"/>
      <point x="254" y="-26"/>
      <point x="252" y="-26" type="curve" smooth="yes"/>
      <point x="247" y="-26"/>
      <point x="244" y="-21"/>
      <point x="244" y="-17" type="curve" smooth="yes"/>
      <point x="244" y="73"/>
      <point x="243" y="263"/>
    </contour>
  </outline>
</glyph>
<glyph name="zayinhebrew" format="1">
  <advance width="407"/>
  <unicode hex="05D6"/>
  <outline>
    <contour>
      <point x="129" y="251" type="curve" smooth="yes"/>
      <point x="120" y="273"/>
      <point x="117" y="297"/>
      <point x="117" y="313" type="curve" smooth="yes"/>
      <point x="117" y="337"/>
      <point x="120" y="374"/>
      <point x="136" y="419" type="curve" smooth="yes"/>
      <point x="143" y="438"/>
      <point x="150" y="452"/>
      <point x="150" y="461" type="curve" smooth="yes"/>
      <point x="150" y="466"/>
      <point x="147" y="470"/>
      <point x="142" y="473" type="curve" smooth="yes"/>
      <point x="68" y="511" type="line" smooth="yes"/>
      <point x="62" y="514"/>
      <point x="58" y="517"/>
      <point x="58" y="521" type="curve" smooth="yes"/>
      <point x="58" y="524"/>
      <point x="60" y="529"/>
      <point x="62" y="532" type="curve" smooth="yes"/>
      <point x="80" y="559"/>
      <point x="96" y="580"/>
      <point x="109" y="596" type="curve" smooth="yes"/>
      <point x="113" y="601"/>
      <point x="116" y="603"/>
      <point x="120" y="603" type="curve" smooth="yes"/>
      <point x="123" y="603"/>
      <point x="125" y="602"/>
      <point x="129" y="600" type="curve" smooth="yes"/>
      <point x="189" y="570"/>
      <point x="301" y="511"/>
      <point x="351" y="461" type="curve" smooth="yes"/>
      <point x="352" y="460"/>
      <point x="354" y="457"/>
      <point x="354" y="452" type="curve" smooth="yes"/>
      <point x="354" y="449"/>
      <point x="353" y="447"/>
      <point x="352" y="443" type="curve" smooth="yes"/>
      <point x="344" y="419"/>
      <point x="333" y="390"/>
      <point x="325" y="375" type="curve" smooth="yes"/>
      <point x="323" y="370"/>
      <point x="319" y="369"/>
      <point x="315" y="369" type="curve" smooth="yes"/>
      <point x="312" y="369"/>
      <point x="308" y="370"/>
      <point x="307" y="371" type="curve" smooth="yes"/>
      <point x="291" y="380"/>
      <point x="262" y="410"/>
      <point x="218" y="410" type="curve" smooth="yes"/>
      <point x="188" y="410"/>
      <point x="176" y="398"/>
      <point x="176" y="370" type="curve" smooth="yes"/>
      <point x="176" y="358"/>
      <point x="181" y="332"/>
      <point x="194" y="300" type="curve" smooth="yes"/>
      <point x="223" y="226"/>
      <point x="268" y="157"/>
      <point x="302" y="89" type="curve" smooth="yes"/>
      <point x="307" y="79"/>
      <point x="308" y="74"/>
      <point x="308" y="70" type="curve" smooth="yes"/>
      <point x="308" y="66"/>
      <point x="307" y="59"/>
      <point x="305" y="50" type="curve" smooth="yes"/>
      <point x="300" y="28"/>
      <point x="294" y="2"/>
      <point x="285" y="-17" type="curve" smooth="yes"/>
      <point x="282" y="-23"/>
      <point x="278" y="-25"/>
      <point x="275" y="-25" type="curve" smooth="yes"/>
      <point x="271" y="-25"/>
      <point x="268" y="-22"/>
      <point x="264" y="-15" type="curve" smooth="yes"/>
      <point x="218" y="66"/>
      <point x="164" y="166"/>
    </contour>
  </outline>
</glyph>
<glyph name="hethebrew" format="1">
  <advance width="726"/>
  <unicode hex="05D7"/>
  <outline>
    <contour>
      <point x="133" y="-20" type="curve" smooth="yes"/>
      <point x="125" y="206"/>
      <point x="119" y="369"/>
      <point x="89" y="462" type="curve" smooth="yes"/>
      <point x="87" y="467"/>
      <point x="86" y="473"/>
      <point x="86" y="477" type="curve" smooth="yes"/>
      <point x="86" y="485"/>
      <point x="89" y="491"/>
      <point x="91" y="496" type="curve" smooth="yes"/>
      <point x="97" y="507"/>
      <point x="145" y="580"/>
      <point x="160" y="597" type="curve" smooth="yes"/>
      <point x="163" y="600"/>
      <point x="169" y="603"/>
      <point x="173" y="603" type="curve" smooth="yes"/>
      <point x="178" y="603"/>
      <point x="185" y="600"/>
      <point x="188" y="592" type="curve" smooth="yes"/>
      <point x="191" y="584"/>
      <point x="193" y="563"/>
      <point x="201" y="559" type="curve" smooth="yes"/>
      <point x="209" y="554"/>
      <point x="227" y="552"/>
      <point x="241" y="552" type="curve"/>
      <point x="410" y="552" type="line"/>
      <point x="499" y="552"/>
      <point x="571" y="491"/>
      <point x="607" y="416" type="curve" smooth="yes"/>
      <point x="640" y="347"/>
      <point x="647" y="255"/>
      <point x="647" y="167" type="curve" smooth="yes"/>
      <point x="647" y="134"/>
      <point x="646" y="103"/>
      <point x="645" y="73" type="curve" smooth="yes"/>
      <point x="644" y="51"/>
      <point x="642" y="44"/>
      <point x="637" y="35" type="curve" smooth="yes"/>
      <point x="628" y="18"/>
      <point x="607" y="-13"/>
      <point x="599" y="-22" type="curve" smooth="yes"/>
      <point x="597" y="-24"/>
      <point x="594" y="-26"/>
      <point x="592" y="-26" type="curve" smooth="yes"/>
      <point x="583" y="-26"/>
      <point x="583" y="-11"/>
      <point x="583" y="-5" type="curve" smooth="yes"/>
      <point x="579" y="82"/>
      <point x="568" y="299"/>
      <point x="531" y="363" type="curve" smooth="yes"/>
      <point x="513" y="394"/>
      <point x="461" y="457"/>
      <point x="382" y="457" type="curve"/>
      <point x="218" y="457" type="line" smooth="yes"/>
      <point x="200" y="457"/>
      <point x="194" y="445"/>
      <point x="194" y="429" type="curve" smooth="yes"/>
      <point x="194" y="425"/>
      <point x="204" y="286"/>
      <point x="204" y="215" type="curve" smooth="yes"/>
      <point x="204" y="165"/>
      <point x="203" y="125"/>
      <point x="200" y="85" type="curve" smooth="yes"/>
      <point x="199" y="71"/>
      <point x="197" y="62"/>
      <point x="193" y="54" type="curve" smooth="yes"/>
      <point x="181" y="29"/>
      <point x="169" y="4"/>
      <point x="146" y="-22" type="curve" smooth="yes"/>
      <point x="142" y="-26"/>
      <point x="140" y="-26"/>
      <point x="138" y="-26" type="curve" smooth="yes"/>
      <point x="135" y="-26"/>
      <point x="133" y="-23"/>
    </contour>
  </outline>
</glyph>
<glyph name="yodhebrew" format="1">
  <advance width="407"/>
  <unicode hex="05D9"/>
  <outline>
    <contour>
      <point x="238" y="349" type="curve" smooth="yes"/>
      <point x="238" y="359"/>
      <point x="234" y="375"/>
      <point x="218" y="391" type="curve" smooth="yes"/>
      <point x="191" y="419"/>
      <point x="104" y="473"/>
      <point x="56" y="496" type="curve" smooth="yes"/>
      <point x="52" y="498"/>
      <point x="50" y="501"/>
      <point x="50" y="504" type="curve" smooth="yes"/>
      <point x="50" y="506"/>
      <point x="51" y="509"/>
      <point x="52" y="511" type="curve" smooth="yes"/>
      <point x="55" y="517"/>
      <point x="95" y="584"/>
      <point x="111" y="599" type="curve" smooth="yes"/>
      <point x="114" y="602"/>
      <point x="116" y="603"/>
      <point x="119" y="603" type="curve" smooth="yes"/>
      <point x="121" y="603"/>
      <point x="122" y="602"/>
      <point x="124" y="601" type="curve" smooth="yes"/>
      <point x="190" y="565"/>
      <point x="279" y="506"/>
      <point x="314" y="469" type="curve" smooth="yes"/>
      <point x="338" y="443"/>
      <point x="343" y="419"/>
      <point x="343" y="398" type="curve" smooth="yes"/>
      <point x="343" y="358"/>
      <point x="299" y="291"/>
      <point x="259" y="232" type="curve" smooth="yes"/>
      <point x="249" y="217"/>
      <point x="243" y="214"/>
      <point x="239" y="210" type="curve" smooth="yes"/>
      <point x="228" y="200"/>
      <point x="179" y="161"/>
      <point x="165" y="161" type="curve" smooth="yes"/>
      <point x="160" y="161"/>
      <point x="158" y="165"/>
      <point x="158" y="169" type="curve" smooth="yes"/>
      <point x="158" y="170"/>
      <point x="159" y="174"/>
      <point x="162" y="179" type="curve" smooth="yes"/>
      <point x="183" y="215"/>
      <point x="238" y="309"/>
    </contour>
  </outline>
</glyph>
<glyph name="finalmemhebrew" format="1">
  <advance width="726"/>
  <unicode hex="05DD"/>
  <outline>
    <contour>
      <point x="90" y="432" type="line"/>
      <point x="89" y="454"/>
      <point x="69" y="456"/>
      <point x="56" y="461" type="curve" smooth="yes"/>
      <point x="51" y="463"/>
      <point x="46" y="467"/>
      <point x="46" y="473" type="curve" smooth="yes"/>
      <point x="46" y="478"/>
      <point x="48" y="483"/>
      <point x="51" y="487" type="curve" smooth="yes"/>
      <point x="74" y="519"/>
      <point x="123" y="579"/>
      <point x="137" y="594" type="curve" smooth="yes"/>
      <point x="142" y="600"/>
      <point x="148" y="603"/>
      <point x="153" y="603" type="curve" smooth="yes"/>
      <point x="160" y="603"/>
      <point x="166" y="598"/>
      <point x="168" y="590" type="curve" smooth="yes"/>
      <point x="173" y="561"/>
      <point x="180" y="552"/>
      <point x="200" y="552" type="curve" smooth="yes"/>
      <point x="492" y="552" type="line" smooth="yes"/>
      <point x="548" y="552"/>
      <point x="581" y="545"/>
      <point x="613" y="508" type="curve" smooth="yes"/>
      <point x="635" y="481"/>
      <point x="639" y="461"/>
      <point x="643" y="431" type="curve" smooth="yes"/>
      <point x="648" y="388"/>
      <point x="651" y="285"/>
      <point x="651" y="233" type="curve" smooth="yes"/>
      <point x="651" y="159"/>
      <point x="646" y="133"/>
      <point x="642" y="120" type="curve" smooth="yes"/>
      <point x="629" y="83"/>
      <point x="596" y="24"/>
      <point x="583" y="8" type="curve" smooth="yes"/>
      <point x="577" y="1"/>
      <point x="571" y="-1"/>
      <point x="556" y="-1" type="curve" smooth="yes"/>
      <point x="194" y="-1" type="line"/>
      <point x="144" y="-1"/>
      <point x="106" y="38"/>
      <point x="102" y="104" type="curve" smooth="yes"/>
      <point x="100" y="140"/>
      <point x="97" y="197"/>
      <point x="95" y="262" type="curve" smooth="yes"/>
    </contour>
    <contour>
      <point x="559" y="94" type="line"/>
      <point x="576" y="94"/>
      <point x="579" y="98"/>
      <point x="579" y="116" type="curve" smooth="yes"/>
      <point x="579" y="194"/>
      <point x="579" y="324"/>
      <point x="564" y="393" type="curve" smooth="yes"/>
      <point x="560" y="411"/>
      <point x="554" y="421"/>
      <point x="539" y="435" type="curve" smooth="yes"/>
      <point x="529" y="445"/>
      <point x="504" y="458"/>
      <point x="464" y="458" type="curve" smooth="yes"/>
      <point x="208" y="458" type="line" smooth="yes"/>
      <point x="179" y="458"/>
      <point x="170" y="456"/>
      <point x="169" y="440" type="curve" smooth="yes"/>
      <point x="168" y="429"/>
      <point x="168" y="410"/>
      <point x="168" y="387" type="curve" smooth="yes"/>
      <point x="168" y="305"/>
      <point x="171" y="172"/>
      <point x="174" y="144" type="curve" smooth="yes"/>
      <point x="178" y="104"/>
      <point x="201" y="94"/>
      <point x="228" y="94" type="curve"/>
    </contour>
  </outline>
</glyph>
<glyph name="nunhebrew" format="1">
  <advance width="407"/>
  <unicode hex="05E0"/>
  <outline>
    <contour>
      <point x="39" y="16" type="curve" smooth="yes"/>
      <point x="46" y="32"/>
      <point x="69" y="72"/>
      <point x="81" y="88" type="curve" smooth="yes"/>
      <point x="85" y="93"/>
      <point x="88" y="95"/>
      <point x="95" y="95" type="curve"/>
      <point x="240" y="95" type="line"/>
      <point x="252" y="95"/>
      <point x="256" y="103"/>
      <point x="257" y="124" type="curve" smooth="yes"/>
      <point x="258" y="145"/>
      <point x="259" y="166"/>
      <point x="259" y="188" type="curve" smooth="yes"/>
      <point x="259" y="227"/>
      <point x="257" y="265"/>
      <point x="253" y="303" type="curve" smooth="yes"/>
      <point x="248" y="350"/>
      <point x="235" y="387"/>
      <point x="197" y="420" type="curve" smooth="yes"/>
      <point x="171" y="443"/>
      <point x="111" y="477"/>
      <point x="61" y="505" type="curve" smooth="yes"/>
      <point x="59" y="506"/>
      <point x="52" y="510"/>
      <point x="52" y="517" type="curve" smooth="yes"/>
      <point x="52" y="520"/>
      <point x="54" y="523"/>
      <point x="56" y="526" type="curve" smooth="yes"/>
      <point x="66" y="541"/>
      <point x="98" y="584"/>
      <point x="111" y="598" type="curve" smooth="yes"/>
      <point x="113" y="600"/>
      <point x="116" y="603"/>
      <point x="119" y="603" type="curve" smooth="yes"/>
      <point x="123" y="603"/>
      <point x="128" y="603"/>
      <point x="139" y="597" type="curve" smooth="yes"/>
      <point x="164" y="583"/>
      <point x="213" y="552"/>
      <point x="244" y="530" type="curve" smooth="yes"/>
      <point x="278" y="505"/>
      <point x="286" y="498"/>
      <point x="306" y="462" type="curve" smooth="yes"/>
      <point x="317" y="442"/>
      <point x="325" y="400"/>
      <point x="328" y="358" type="curve" smooth="yes"/>
      <point x="330" y="320"/>
      <point x="331" y="275"/>
      <point x="331" y="189" type="curve" smooth="yes"/>
      <point x="331" y="165"/>
      <point x="329" y="148"/>
      <point x="323" y="130" type="curve" smooth="yes"/>
      <point x="310" y="92"/>
      <point x="285" y="44"/>
      <point x="262" y="12" type="curve" smooth="yes"/>
      <point x="255" y="2"/>
      <point x="247" y="0"/>
      <point x="237" y="0" type="curve"/>
      <point x="50" y="0" type="line"/>
      <point x="40" y="0"/>
      <point x="37" y="5"/>
      <point x="37" y="10" type="curve" smooth="yes"/>
      <point x="37" y="12"/>
      <point x="38" y="14"/>
    </contour>
  </outline>
</glyph>
<glyph name="ayinhebrew" format="1">
  <advance width="567"/>
  <unicode hex="05E2"/>
  <outline>
    <contour>
      <point x="97" y="26" type="curve" smooth="yes"/>
      <point x="115" y="34"/>
      <point x="192" y="70"/>
      <point x="211" y="82" type="curve" smooth="yes"/>
      <point x="216" y="85"/>
      <point x="220" y="89"/>
      <point x="220" y="95" type="curve" smooth="yes"/>
      <point x="220" y="97"/>
      <point x="216" y="112"/>
      <point x="215" y="114" type="curve" smooth="yes"/>
      <point x="173" y="253"/>
      <point x="149" y="357"/>
      <point x="65" y="501" type="curve" smooth="yes"/>
      <point x="59" y="511"/>
      <point x="56" y="518"/>
      <point x="56" y="521" type="curve" smooth="yes"/>
      <point x="56" y="525"/>
      <point x="60" y="530"/>
      <point x="64" y="535" type="curve" smooth="yes"/>
      <point x="75" y="549"/>
      <point x="113" y="594"/>
      <point x="120" y="599" type="curve" smooth="yes"/>
      <point x="123" y="601"/>
      <point x="126" y="603"/>
      <point x="130" y="603" type="curve" smooth="yes"/>
      <point x="133" y="603"/>
      <point x="137" y="602"/>
      <point x="139" y="597" type="curve" smooth="yes"/>
      <point x="208" y="451"/>
      <point x="240" y="293"/>
      <point x="285" y="130" type="curve" smooth="yes"/>
      <point x="286" y="125"/>
      <point x="289" y="123"/>
      <point x="292" y="123" type="curve" smooth="yes"/>
      <point x="294" y="123"/>
      <point x="302" y="126"/>
      <point x="303" y="127" type="curve" smooth="yes"/>
      <point x="351" y="157"/>
      <point x="400" y="188"/>
      <point x="411" y="200" type="curve" smooth="yes"/>
      <point x="426" y="216"/>
      <point x="429" y="235"/>
      <point x="429" y="269" type="curve" smooth="yes"/>
      <point x="429" y="336"/>
      <point x="417" y="406"/>
      <point x="399" y="471" type="curve" smooth="yes"/>
      <point x="391" y="499"/>
      <point x="388" y="512"/>
      <point x="388" y="520" type="curve" smooth="yes"/>
      <point x="388" y="526"/>
      <point x="390" y="530"/>
      <point x="393" y="534" type="curve" smooth="yes"/>
      <point x="408" y="554"/>
      <point x="442" y="591"/>
      <point x="451" y="599" type="curve" smooth="yes"/>
      <point x="454" y="601"/>
      <point x="457" y="603"/>
      <point x="460" y="603" type="curve" smooth="yes"/>
      <point x="464" y="603"/>
      <point x="469" y="600"/>
      <point x="471" y="592" type="curve" smooth="yes"/>
      <point x="493" y="511"/>
      <point x="500" y="420"/>
      <point x="500" y="350" type="curve" smooth="yes"/>
      <point x="500" y="300"/>
      <point x="491" y="273"/>
      <point x="476" y="227" type="curve" smooth="yes"/>
      <point x="463" y="187"/>
      <point x="433" y="135"/>
      <point x="376" y="92" type="curve" smooth="yes"/>
      <point x="307" y="40"/>
      <point x="171" y="-36"/>
      <point x="60" y="-84" type="curve" smooth="yes"/>
      <point x="53" y="-87"/>
      <point x="48" y="-89"/>
      <point x="45" y="-89" type="curve" smooth="yes"/>
      <point x="40" y="-89"/>
      <point x="36" y="-85"/>
      <point x="36" y="-79" type="curve" smooth="yes"/>
      <point x="36" y="-67"/>
      <point x="68" y="-6"/>
      <point x="76" y="8" type="curve" smooth="yes"/>
      <point x="81" y="17"/>
      <point x="88" y="22"/>
    </contour>
  </outline>
</glyph>
<glyph name="finalpehebrew" format="1">
  <advance width="567"/>
  <unicode hex="05E3"/>
  <outline>
    <contour>
      <point x="392" y="328" type="curve" smooth="yes"/>
      <point x="387" y="367"/>
      <point x="373" y="399"/>
      <point x="339" y="425" type="curve" smooth="yes"/>
      <point x="312" y="446"/>
      <point x="261" y="470"/>
      <point x="171" y="501" type="curve" smooth="yes"/>
      <point x="170" y="502"/>
      <point x="168" y="502"/>
      <point x="167" y="502" type="curve" smooth="yes"/>
      <point x="165" y="502"/>
      <point x="161" y="501"/>
      <point x="159" y="498" type="curve" smooth="yes"/>
      <point x="137" y="473"/>
      <point x="123" y="441"/>
      <point x="123" y="401" type="curve" smooth="yes"/>
      <point x="123" y="329"/>
      <point x="166" y="311"/>
      <point x="216" y="289" type="curve" smooth="yes"/>
      <point x="222" y="286"/>
      <point x="226" y="283"/>
      <point x="226" y="279" type="curve" smooth="yes"/>
      <point x="226" y="276"/>
      <point x="224" y="271"/>
      <point x="220" y="265" type="curve" smooth="yes"/>
      <point x="209" y="248"/>
      <point x="190" y="219"/>
      <point x="177" y="207" type="curve" smooth="yes"/>
      <point x="174" y="204"/>
      <point x="172" y="203"/>
      <point x="169" y="203" type="curve" smooth="yes"/>
      <point x="166" y="203"/>
      <point x="162" y="205"/>
      <point x="155" y="208" type="curve" smooth="yes"/>
      <point x="83" y="239"/>
      <point x="44" y="289"/>
      <point x="44" y="367" type="curve" smooth="yes"/>
      <point x="44" y="453"/>
      <point x="122" y="546"/>
      <point x="186" y="599" type="curve" smooth="yes"/>
      <point x="189" y="601"/>
      <point x="192" y="603"/>
      <point x="196" y="603" type="curve" smooth="yes"/>
      <point x="198" y="603"/>
      <point x="200" y="602"/>
      <point x="203" y="601" type="curve" smooth="yes"/>
      <point x="249" y="585"/>
      <point x="352" y="548"/>
      <point x="389" y="521" type="curve" smooth="yes"/>
      <point x="445" y="478"/>
      <point x="466" y="436"/>
      <point x="471" y="363" type="curve" smooth="yes"/>
      <point x="475" y="308"/>
      <point x="478" y="154"/>
      <point x="478" y="27" type="curve" smooth="yes"/>
      <point x="478" y="-42"/>
      <point x="477" y="-103"/>
      <point x="475" y="-136" type="curve" smooth="yes"/>
      <point x="474" y="-148"/>
      <point x="474" y="-153"/>
      <point x="472" y="-158" type="curve" smooth="yes"/>
      <point x="462" y="-179"/>
      <point x="441" y="-213"/>
      <point x="429" y="-225" type="curve" smooth="yes"/>
      <point x="426" y="-228"/>
      <point x="423" y="-230"/>
      <point x="421" y="-230" type="curve" smooth="yes"/>
      <point x="418" y="-230"/>
      <point x="417" y="-227"/>
      <point x="416" y="-223" type="curve" smooth="yes"/>
      <point x="407" y="-152"/>
      <point x="403" y="245"/>
    </contour>
  </outline>
</glyph>
<glyph name="qofhebrew" format="1">
  <advance width="726"/>
  <unicode hex="05E7"/>
  <outline>
    <contour>
      <point x="127" y="434" type="curve" smooth="yes"/>
      <point x="124" y="455"/>
      <point x="84" y="456"/>
      <point x="74" y="458" type="curve" smooth="yes"/>
      <point x="67" y="460"/>
      <point x="65" y="464"/>
      <point x="65" y="468" type="curve" smooth="yes"/>
      <point x="65" y="472"/>
      <point x="66" y="475"/>
      <point x="69" y="480" type="curve" smooth="yes"/>
      <point x="99" y="530"/>
      <point x="144" y="579"/>
      <point x="161" y="596" type="curve" smooth="yes"/>
      <point x="165" y="600"/>
      <point x="170" y="603"/>
      <point x="176" y="603" type="curve" smooth="yes"/>
      <point x="183" y="603"/>
      <point x="189" y="598"/>
      <point x="191" y="590" type="curve" smooth="yes"/>
      <point x="197" y="571"/>
      <point x="196" y="553"/>
      <point x="224" y="553" type="curve"/>
      <point x="568" y="553" type="line"/>
      <point x="631" y="553"/>
      <point x="660" y="501"/>
      <point x="660" y="448" type="curve" smooth="yes"/>
      <point x="660" y="374"/>
      <point x="634" y="296"/>
      <point x="612" y="245" type="curve" smooth="yes"/>
      <point x="576" y="163"/>
      <point x="526" y="87"/>
      <point x="449" y="41" type="curve" smooth="yes"/>
      <point x="417" y="22"/>
      <point x="335" y="-17"/>
      <point x="315" y="-17" type="curve" smooth="yes"/>
      <point x="305" y="-17"/>
      <point x="302" y="-13"/>
      <point x="302" y="-6" type="curve" smooth="yes"/>
      <point x="302" y="4"/>
      <point x="336" y="64"/>
      <point x="343" y="76" type="curve" smooth="yes"/>
      <point x="349" y="86"/>
      <point x="352" y="91"/>
      <point x="363" y="94" type="curve" smooth="yes"/>
      <point x="444" y="118"/>
      <point x="522" y="143"/>
      <point x="553" y="229" type="curve" smooth="yes"/>
      <point x="562" y="253"/>
      <point x="577" y="320"/>
      <point x="577" y="372" type="curve" smooth="yes"/>
      <point x="577" y="414"/>
      <point x="568" y="458"/>
      <point x="520" y="458" type="curve" smooth="yes"/>
      <point x="231" y="458" type="line"/>
      <point x="224" y="458"/>
      <point x="216" y="450"/>
      <point x="216" y="442" type="curve" smooth="yes"/>
      <point x="220" y="350"/>
      <point x="220" y="247"/>
      <point x="220" y="193" type="curve" smooth="yes"/>
      <point x="220" y="141"/>
      <point x="221" y="111"/>
      <point x="221" y="51" type="curve" smooth="yes"/>
      <point x="221" y="-23"/>
      <point x="221" y="-102"/>
      <point x="219" y="-133" type="curve" smooth="yes"/>
      <point x="219" y="-135"/>
      <point x="218" y="-145"/>
      <point x="213" y="-156" type="curve" smooth="yes"/>
      <point x="203" y="-179"/>
      <point x="182" y="-210"/>
      <point x="169" y="-224" type="curve" smooth="yes"/>
      <point x="166" y="-228"/>
      <point x="163" y="-229"/>
      <point x="160" y="-229" type="curve" smooth="yes"/>
      <point x="155" y="-229"/>
      <point x="151" y="-223"/>
      <point x="151" y="-219" type="curve" smooth="yes"/>
      <point x="147" y="-10"/>
      <point x="152" y="228"/>
    </contour>
  </outline>
</glyph>
<glyph name="reshhebrew" format="1">
  <advance width="567"/>
  <unicode hex="05E8"/>
  <outline>
    <contour>
      <point x="400" y="327" type="curve" smooth="yes"/>
      <point x="386" y="410"/>
      <point x="335" y="458"/>
      <point x="264" y="458" type="curve"/>
      <point x="65" y="458" type="line"/>
      <point x="49" y="458"/>
      <point x="38" y="465"/>
      <point x="38" y="475" type="curve" smooth="yes"/>
      <point x="38" y="478"/>
      <point x="39" y="481"/>
      <point x="41" y="484" type="curve" smooth="yes"/>
      <point x="48" y="497"/>
      <point x="103" y="577"/>
      <point x="121" y="596" type="curve" smooth="yes"/>
      <point x="124" y="599"/>
      <point x="130" y="603"/>
      <point x="135" y="603" type="curve" smooth="yes"/>
      <point x="141" y="603"/>
      <point x="146" y="600"/>
      <point x="149" y="590" type="curve" smooth="yes"/>
      <point x="156" y="561"/>
      <point x="154" y="553"/>
      <point x="186" y="553" type="curve" smooth="yes"/>
      <point x="302" y="553" type="line"/>
      <point x="351" y="553"/>
      <point x="427" y="526"/>
      <point x="464" y="418" type="curve" smooth="yes"/>
      <point x="490" y="343"/>
      <point x="492" y="185"/>
      <point x="492" y="84" type="curve" smooth="yes"/>
      <point x="492" y="73"/>
      <point x="492" y="69"/>
      <point x="489" y="60" type="curve" smooth="yes"/>
      <point x="480" y="38"/>
      <point x="465" y="5"/>
      <point x="448" y="-19" type="curve" smooth="yes"/>
      <point x="444" y="-24"/>
      <point x="440" y="-26"/>
      <point x="436" y="-26" type="curve" smooth="yes"/>
      <point x="430" y="-26"/>
      <point x="426" y="-20"/>
      <point x="425" y="-12" type="curve" smooth="yes"/>
      <point x="418" y="82"/>
      <point x="418" y="226"/>
    </contour>
  </outline>
</glyph>
<glyph name="tavhebrew" format="1">
  <advance width="726"/>
  <unicode hex="05EA"/>
  <outline>
    <contour>
      <point x="96" y="85" type="curve" smooth="yes"/>
      <point x="100" y="91"/>
      <point x="102" y="93"/>
      <point x="116" y="93" type="curve"/>
      <point x="226" y="93" type="line"/>
      <point x="235" y="93"/>
      <point x="237" y="98"/>
      <point x="237" y="104" type="curve" smooth="yes"/>
      <point x="237" y="122"/>
      <point x="194" y="359"/>
      <point x="160" y="444" type="curve" smooth="yes"/>
      <point x="157" y="453"/>
      <point x="150" y="459"/>
      <point x="142" y="459" type="curve"/>
      <point x="75" y="459" type="line"/>
      <point x="66" y="459"/>
      <point x="57" y="465"/>
      <point x="57" y="474" type="curve" smooth="yes"/>
      <point x="57" y="476"/>
      <point x="58" y="479"/>
      <point x="60" y="482" type="curve" smooth="yes"/>
      <point x="71" y="501"/>
      <point x="128" y="580"/>
      <point x="148" y="598" type="curve" smooth="yes"/>
      <point x="150" y="600"/>
      <point x="155" y="603"/>
      <point x="159" y="603" type="curve" smooth="yes"/>
      <point x="165" y="603"/>
      <point x="171" y="598"/>
      <point x="175" y="588" type="curve" smooth="yes"/>
      <point x="184" y="565"/>
      <point x="187" y="552"/>
      <point x="203" y="552" type="curve"/>
      <point x="485" y="552" type="line"/>
      <point x="549" y="552"/>
      <point x="586" y="528"/>
      <point x="605" y="492" type="curve" smooth="yes"/>
      <point x="628" y="449"/>
      <point x="634" y="260"/>
      <point x="634" y="152" type="curve" smooth="yes"/>
      <point x="634" y="121"/>
      <point x="634" y="97"/>
      <point x="633" y="84" type="curve" smooth="yes"/>
      <point x="632" y="70"/>
      <point x="631" y="66"/>
      <point x="629" y="60" type="curve" smooth="yes"/>
      <point x="617" y="31"/>
      <point x="605" y="6"/>
      <point x="591" y="-17" type="curve" smooth="yes"/>
      <point x="588" y="-22"/>
      <point x="583" y="-26"/>
      <point x="579" y="-26" type="curve" smooth="yes"/>
      <point x="574" y="-26"/>
      <point x="569" y="-22"/>
      <point x="568" y="-12" type="curve" smooth="yes"/>
      <point x="565" y="17"/>
      <point x="560" y="335"/>
      <point x="545" y="394" type="curve" smooth="yes"/>
      <point x="534" y="436"/>
      <point x="516" y="458"/>
      <point x="480" y="458" type="curve"/>
      <point x="265" y="458" type="line"/>
      <point x="255" y="458"/>
      <point x="250" y="455"/>
      <point x="250" y="452" type="curve"/>
      <point x="250" y="452"/>
      <point x="250" y="448"/>
      <point x="252" y="439" type="curve" smooth="yes"/>
      <point x="265" y="380"/>
      <point x="287" y="253"/>
      <point x="294" y="194" type="curve" smooth="yes"/>
      <point x="295" y="186"/>
      <point x="296" y="174"/>
      <point x="296" y="169" type="curve" smooth="yes"/>
      <point x="296" y="161"/>
      <point x="295" y="154"/>
      <point x="294" y="149" type="curve" smooth="yes"/>
      <point x="287" y="114"/>
      <point x="265" y="45"/>
      <point x="253" y="17" type="curve" smooth="yes"/>
      <point x="249" y="7"/>
      <point x="241" y="0"/>
      <point x="229" y="0" type="curve"/>
      <point x="54" y="0" type="line"/>
      <point x="49" y="0"/>
      <point x="45" y="3"/>
      <point x="45" y="7" type="curve" smooth="yes"/>
      <point x="45" y="9"/>
      <point x="47" y="13"/>
      <point x="49" y="16" type="curve" smooth="yes"/>
      <point x="63" y="40"/>
      <point x="79" y="64"/>
    </contour>
  </outline>
</glyph>
<glyph name="uni05F3" format="1">
  <advance width="285"/>
  <unicode hex="05F3"/>
  <outline>
    <contour>
      <point x="171" y="658" type="curve" smooth="yes"/>
      <point x="173" y="660"/>
      <point x="176" y="662"/>
      <point x="181" y="662" type="curve" smooth="yes"/>
      <point x="202" y="662" type="line" smooth="yes"/>
      <point x="215" y="662"/>
      <point x="216" y="639"/>
      <point x="216" y="625" type="curve" smooth="yes"/>
      <point x="216" y="601"/>
      <point x="199" y="574"/>
      <point x="189" y="560" type="curve" smooth="yes"/>
      <point x="174" y="537"/>
      <point x="64" y="446"/>
      <point x="43" y="446" type="curve" smooth="yes"/>
      <point x="35" y="446"/>
      <point x="30" y="453"/>
      <point x="30" y="460" type="curve" smooth="yes"/>
      <point x="30" y="463"/>
      <point x="32" y="466"/>
      <point x="33" y="468" type="curve" smooth="yes"/>
      <point x="58" y="506"/>
      <point x="136" y="621"/>
    </contour>
  </outline>
</glyph>
<glyph name="uni05F4" format="1">
  <advance width="408"/>
  <unicode hex="05F4"/>
  <outline>
    <contour>
      <point x="171" y="658" type="curve" smooth="yes"/>
      <point x="173" y="660"/>
      <point x="176" y="662"/>
      <point x="181" y="662" type="curve" smooth="yes"/>
      <point x="201" y="662" type="line" smooth="yes"/>
      <point x="214" y="662"/>
      <point x="215" y="639"/>
      <point x="215" y="625" type="curve" smooth="yes"/>
      <point x="215" y="601"/>
      <point x="198" y="574"/>
      <point x="189" y="560" type="curve" smooth="yes"/>
      <point x="174" y="537"/>
      <point x="63" y="446"/>
      <point x="42" y="446" type="curve" smooth="yes"/>
      <point x="34" y="446"/>
      <point x="30" y="453"/>
      <point x="30" y="460" type="curve" smooth="yes"/>
      <point x="30" y="463"/>
      <point x="32" y="466"/>
      <point x="33" y="468" type="curve" smooth="yes"/>
      <point x="57" y="506"/>
      <point x="135" y="621"/>
    </contour>
    <contour>
      <point x="324" y="658" type="curve" smooth="yes"/>
      <point x="326" y="660"/>
      <point x="330" y="662"/>
      <point x="335" y="662" type="curve" smooth="yes"/>
      <point x="354" y="662" type="line" smooth="yes"/>
      <point x="367" y="662"/>
      <point x="368" y="639"/>
      <point x="368" y="625" type="curve" smooth="yes"/>
      <point x="368" y="601"/>
      <point x="352" y="575"/>
      <point x="343" y="561" type="curve" smooth="yes"/>
      <point x="328" y="538"/>
      <point x="217" y="446"/>
      <point x="196" y="446" type="curve" smooth="yes"/>
      <point x="189" y="446"/>
      <point x="184" y="454"/>
      <point x="184" y="461" type="curve" smooth="yes"/>
      <point x="184" y="464"/>
      <point x="185" y="466"/>
      <point x="186" y="468" type="curve" smooth="yes"/>
      <point x="210" y="506"/>
      <point x="288" y="621"/>
    </contour>
  </outline>
</glyph>
<glyph name="endash" format="1">
  <advance width="542"/>
  <unicode hex="2013"/>
  <outline>
    <contour>
      <point x="114" y="305" type="curve" smooth="yes"/>
      <point x="123" y="313"/>
      <point x="130" y="313"/>
      <point x="137" y="313" type="curve" smooth="yes"/>
      <point x="452" y="313" type="line" smooth="yes"/>
      <point x="463" y="313"/>
      <point x="467" y="309"/>
      <point x="467" y="303" type="curve" smooth="yes"/>
      <point x="467" y="299"/>
      <point x="464" y="293"/>
      <point x="461" y="289" type="curve" smooth="yes"/>
      <point x="446" y="266"/>
      <point x="447" y="266"/>
      <point x="431" y="248" type="curve" smooth="yes"/>
      <point x="424" y="240"/>
      <point x="417" y="240"/>
      <point x="406" y="240" type="curve" smooth="yes"/>
      <point x="90" y="240" type="line" smooth="yes"/>
      <point x="79" y="240"/>
      <point x="75" y="244"/>
      <point x="75" y="249" type="curve" smooth="yes"/>
      <point x="75" y="252"/>
      <point x="76" y="255"/>
      <point x="77" y="257" type="curve" smooth="yes"/>
      <point x="93" y="283"/>
      <point x="103" y="294"/>
    </contour>
  </outline>
</glyph>
<glyph name="emdash" format="1">
  <advance width="668"/>
  <unicode hex="2014"/>
  <outline>
    <contour>
      <point x="114" y="305" type="curve" smooth="yes"/>
      <point x="123" y="313"/>
      <point x="130" y="313"/>
      <point x="137" y="313" type="curve" smooth="yes"/>
      <point x="578" y="313" type="line" smooth="yes"/>
      <point x="589" y="313"/>
      <point x="593" y="309"/>
      <point x="593" y="303" type="curve" smooth="yes"/>
      <point x="593" y="299"/>
      <point x="590" y="293"/>
      <point x="587" y="289" type="curve" smooth="yes"/>
      <point x="572" y="266"/>
      <point x="573" y="266"/>
      <point x="557" y="248" type="curve" smooth="yes"/>
      <point x="550" y="240"/>
      <point x="543" y="240"/>
      <point x="532" y="240" type="curve" smooth="yes"/>
      <point x="90" y="240" type="line" smooth="yes"/>
      <point x="79" y="240"/>
      <point x="75" y="244"/>
      <point x="75" y="249" type="curve" smooth="yes"/>
      <point x="75" y="252"/>
      <point x="76" y="255"/>
      <point x="77" y="257" type="curve" smooth="yes"/>
      <point x="93" y="283"/>
      <point x="103" y="294"/>
    </contour>
  </outline>
</glyph>
<glyph name="quotedblright" format="1">
  <advance width="562"/>
  <unicode hex="201D"/>
  <outline>
    <contour>
      <point x="124" y="462" type="curve" smooth="yes"/>
      <point x="124" y="494"/>
      <point x="115" y="520"/>
      <point x="110" y="534" type="curve" smooth="yes"/>
      <point x="109" y="537"/>
      <point x="108" y="539"/>
      <point x="108" y="542" type="curve" smooth="yes"/>
      <point x="108" y="545"/>
      <point x="109" y="548"/>
      <point x="111" y="551" type="curve" smooth="yes"/>
      <point x="122" y="567"/>
      <point x="149" y="601"/>
      <point x="167" y="622" type="curve" smooth="yes"/>
      <point x="170" y="625"/>
      <point x="173" y="626"/>
      <point x="176" y="626" type="curve" smooth="yes"/>
      <point x="179" y="626"/>
      <point x="182" y="624"/>
      <point x="184" y="621" type="curve" smooth="yes"/>
      <point x="193" y="605"/>
      <point x="216" y="561"/>
      <point x="216" y="519" type="curve" smooth="yes"/>
      <point x="216" y="484"/>
      <point x="205" y="453"/>
      <point x="197" y="434" type="curve" smooth="yes"/>
      <point x="187" y="410"/>
      <point x="103" y="256"/>
      <point x="89" y="256" type="curve" smooth="yes"/>
      <point x="85" y="256"/>
      <point x="79" y="258"/>
      <point x="79" y="263" type="curve" smooth="yes"/>
      <point x="79" y="276"/>
      <point x="124" y="419"/>
    </contour>
    <contour>
      <point x="376" y="462" type="curve" smooth="yes"/>
      <point x="376" y="494"/>
      <point x="367" y="520"/>
      <point x="362" y="534" type="curve" smooth="yes"/>
      <point x="361" y="537"/>
      <point x="360" y="539"/>
      <point x="360" y="542" type="curve" smooth="yes"/>
      <point x="360" y="545"/>
      <point x="361" y="548"/>
      <point x="363" y="551" type="curve" smooth="yes"/>
      <point x="374" y="567"/>
      <point x="401" y="601"/>
      <point x="419" y="622" type="curve" smooth="yes"/>
      <point x="422" y="625"/>
      <point x="425" y="626"/>
      <point x="428" y="626" type="curve" smooth="yes"/>
      <point x="431" y="626"/>
      <point x="434" y="624"/>
      <point x="436" y="621" type="curve" smooth="yes"/>
      <point x="445" y="605"/>
      <point x="468" y="561"/>
      <point x="468" y="519" type="curve" smooth="yes"/>
      <point x="468" y="484"/>
      <point x="457" y="453"/>
      <point x="449" y="434" type="curve" smooth="yes"/>
      <point x="439" y="410"/>
      <point x="355" y="256"/>
      <point x="341" y="256" type="curve" smooth="yes"/>
      <point x="337" y="256"/>
      <point x="331" y="258"/>
      <point x="331" y="263" type="curve" smooth="yes"/>
      <point x="331" y="276"/>
      <point x="376" y="419"/>
    </contour>
  </outline>
</glyph>
<glyph name="daggerdbl" format="1">
  <advance width="370"/>
  <unicode hex="2021"/>
  <outline>
    <contour>
      <point x="212" y="324" type="curve" smooth="yes"/>
      <point x="210" y="346"/>
      <point x="212" y="396"/>
      <point x="213" y="419" type="curve" smooth="yes"/>
      <point x="213" y="426"/>
      <point x="216" y="432"/>
      <point x="222" y="432" type="curve" smooth="yes"/>
      <point x="272" y="432" type="line" smooth="yes"/>
      <point x="282" y="432"/>
      <point x="289" y="435"/>
      <point x="300" y="449" type="curve" smooth="yes"/>
      <point x="312" y="465"/>
      <point x="320" y="479"/>
      <point x="320" y="488" type="curve" smooth="yes"/>
      <point x="320" y="498"/>
      <point x="314" y="499"/>
      <point x="303" y="499" type="curve" smooth="yes"/>
      <point x="220" y="499" type="line" smooth="yes"/>
      <point x="214" y="499"/>
      <point x="211" y="501"/>
      <point x="211" y="506" type="curve" smooth="yes"/>
      <point x="210" y="548"/>
      <point x="208" y="581"/>
      <point x="207" y="610" type="curve" smooth="yes"/>
      <point x="207" y="616"/>
      <point x="204" y="622"/>
      <point x="195" y="622" type="curve" smooth="yes"/>
      <point x="179" y="622" type="line" smooth="yes"/>
      <point x="170" y="622"/>
      <point x="169" y="615"/>
      <point x="168" y="609" type="curve" smooth="yes"/>
      <point x="166" y="578"/>
      <point x="165" y="550"/>
      <point x="162" y="510" type="curve" smooth="yes"/>
      <point x="161" y="503"/>
      <point x="159" y="499"/>
      <point x="153" y="499" type="curve" smooth="yes"/>
      <point x="102" y="499" type="line" smooth="yes"/>
      <point x="94" y="499"/>
      <point x="87" y="495"/>
      <point x="79" y="486" type="curve" smooth="yes"/>
      <point x="63" y="468"/>
      <point x="50" y="452"/>
      <point x="50" y="441" type="curve" smooth="yes"/>
      <point x="50" y="434"/>
      <point x="57" y="432"/>
      <point x="66" y="432" type="curve" smooth="yes"/>
      <point x="147" y="432" type="line" smooth="yes"/>
      <point x="155" y="432"/>
      <point x="158" y="428"/>
      <point x="159" y="418" type="curve" smooth="yes"/>
      <point x="159" y="400"/>
      <point x="159" y="353"/>
      <point x="158" y="324" type="curve" smooth="yes"/>
      <point x="158" y="316"/>
      <point x="154" y="308"/>
      <point x="149" y="308" type="curve" smooth="yes"/>
      <point x="99" y="308" type="line" smooth="yes"/>
      <point x="90" y="308"/>
      <point x="82" y="303"/>
      <point x="71" y="289" type="curve" smooth="yes"/>
      <point x="59" y="273"/>
      <point x="51" y="265"/>
      <point x="51" y="256" type="curve" smooth="yes"/>
      <point x="51" y="246"/>
      <point x="59" y="244"/>
      <point x="69" y="244" type="curve" smooth="yes"/>
      <point x="150" y="244" type="line" smooth="yes"/>
      <point x="156" y="244"/>
      <point x="159" y="243"/>
      <point x="159" y="237" type="curve" smooth="yes"/>
      <point x="160" y="195"/>
      <point x="162" y="161"/>
      <point x="163" y="132" type="curve" smooth="yes"/>
      <point x="163" y="126"/>
      <point x="166" y="120"/>
      <point x="174" y="120" type="curve" smooth="yes"/>
      <point x="191" y="120" type="line" smooth="yes"/>
      <point x="200" y="120"/>
      <point x="201" y="126"/>
      <point x="201" y="132" type="curve" smooth="yes"/>
      <point x="204" y="164"/>
      <point x="205" y="193"/>
      <point x="208" y="234" type="curve" smooth="yes"/>
      <point x="209" y="240"/>
      <point x="211" y="244"/>
      <point x="216" y="244" type="curve" smooth="yes"/>
      <point x="268" y="244" type="line" smooth="yes"/>
      <point x="276" y="244"/>
      <point x="283" y="249"/>
      <point x="291" y="259" type="curve" smooth="yes"/>
      <point x="307" y="278"/>
      <point x="316" y="288"/>
      <point x="316" y="299" type="curve" smooth="yes"/>
      <point x="316" y="306"/>
      <point x="309" y="308"/>
      <point x="301" y="308" type="curve" smooth="yes"/>
      <point x="224" y="308" type="line" smooth="yes"/>
      <point x="216" y="308"/>
      <point x="213" y="315"/>
    </contour>
  </outline>
</glyph>
<glyph name="guilsinglleft" format="1">
  <advance width="231"/>
  <unicode hex="2039"/>
  <outline>
    <contour>
      <point x="97" y="359" type="curve" smooth="yes"/>
      <point x="81" y="339"/>
      <point x="56" y="303"/>
      <point x="44" y="278" type="curve" smooth="yes"/>
      <point x="42" y="274"/>
      <point x="40" y="268"/>
      <point x="40" y="263" type="curve" smooth="yes"/>
      <point x="40" y="257"/>
      <point x="42" y="251"/>
      <point x="49" y="240" type="curve" smooth="yes"/>
      <point x="64" y="215"/>
      <point x="98" y="177"/>
      <point x="125" y="154" type="curve" smooth="yes"/>
      <point x="130" y="150"/>
      <point x="133" y="149"/>
      <point x="135" y="149" type="curve" smooth="yes"/>
      <point x="138" y="149"/>
      <point x="142" y="151"/>
      <point x="145" y="154" type="curve" smooth="yes"/>
      <point x="162" y="173"/>
      <point x="175" y="194"/>
      <point x="182" y="206" type="curve"/>
      <point x="182" y="206"/>
      <point x="188" y="217"/>
      <point x="188" y="222" type="curve" smooth="yes"/>
      <point x="188" y="225"/>
      <point x="187" y="230"/>
      <point x="184" y="233" type="curve" smooth="yes"/>
      <point x="139" y="279" type="line" smooth="yes"/>
      <point x="136" y="282"/>
      <point x="134" y="288"/>
      <point x="134" y="291" type="curve" smooth="yes"/>
      <point x="134" y="294"/>
      <point x="134" y="298"/>
      <point x="137" y="303" type="curve" smooth="yes"/>
      <point x="149" y="327"/>
      <point x="165" y="356"/>
      <point x="177" y="381" type="curve" smooth="yes"/>
      <point x="179" y="385"/>
      <point x="179" y="389"/>
      <point x="179" y="392" type="curve" smooth="yes"/>
      <point x="179" y="396"/>
      <point x="176" y="399"/>
      <point x="171" y="399" type="curve" smooth="yes"/>
      <point x="169" y="399"/>
      <point x="166" y="399"/>
      <point x="162" y="397" type="curve" smooth="yes"/>
      <point x="154" y="394"/>
      <point x="127" y="381"/>
      <point x="122" y="378" type="curve" smooth="yes"/>
      <point x="115" y="374"/>
      <point x="106" y="371"/>
    </contour>
  </outline>
</glyph>
<glyph name="guilsinglright" format="1">
  <advance width="231"/>
  <unicode hex="203A"/>
  <outline>
    <contour>
      <point x="134" y="189" type="curve" smooth="yes"/>
      <point x="150" y="209"/>
      <point x="175" y="245"/>
      <point x="187" y="270" type="curve" smooth="yes"/>
      <point x="189" y="274"/>
      <point x="191" y="280"/>
      <point x="191" y="285" type="curve" smooth="yes"/>
      <point x="191" y="291"/>
      <point x="189" y="297"/>
      <point x="182" y="308" type="curve" smooth="yes"/>
      <point x="167" y="333"/>
      <point x="133" y="371"/>
      <point x="106" y="394" type="curve" smooth="yes"/>
      <point x="101" y="398"/>
      <point x="98" y="399"/>
      <point x="96" y="399" type="curve" smooth="yes"/>
      <point x="93" y="399"/>
      <point x="89" y="397"/>
      <point x="86" y="394" type="curve" smooth="yes"/>
      <point x="69" y="375"/>
      <point x="56" y="354"/>
      <point x="49" y="342" type="curve"/>
      <point x="49" y="342"/>
      <point x="43" y="331"/>
      <point x="43" y="326" type="curve" smooth="yes"/>
      <point x="43" y="323"/>
      <point x="44" y="318"/>
      <point x="47" y="315" type="curve" smooth="yes"/>
      <point x="92" y="269" type="line" smooth="yes"/>
      <point x="95" y="266"/>
      <point x="97" y="260"/>
      <point x="97" y="257" type="curve" smooth="yes"/>
      <point x="97" y="254"/>
      <point x="97" y="250"/>
      <point x="94" y="245" type="curve" smooth="yes"/>
      <point x="82" y="221"/>
      <point x="66" y="192"/>
      <point x="54" y="167" type="curve" smooth="yes"/>
      <point x="52" y="163"/>
      <point x="52" y="159"/>
      <point x="52" y="156" type="curve" smooth="yes"/>
      <point x="52" y="152"/>
      <point x="55" y="149"/>
      <point x="60" y="149" type="curve" smooth="yes"/>
      <point x="62" y="149"/>
      <point x="65" y="149"/>
      <point x="69" y="151" type="curve" smooth="yes"/>
      <point x="77" y="154"/>
      <point x="104" y="167"/>
      <point x="109" y="170" type="curve" smooth="yes"/>
      <point x="116" y="174"/>
      <point x="125" y="177"/>
    </contour>
  </outline>
</glyph>
<glyph name="minus" format="1">
  <advance width="568"/>
  <unicode hex="2212"/>
  <outline>
    <contour>
      <point x="82" y="356" type="curve"/>
      <point x="69" y="356"/>
      <point x="66" y="350"/>
      <point x="66" y="340" type="curve" smooth="yes"/>
      <point x="66" y="297" type="line" smooth="yes"/>
      <point x="66" y="288"/>
      <point x="69" y="282"/>
      <point x="82" y="282" type="curve" smooth="yes"/>
      <point x="82" y="282"/>
      <point x="247" y="285"/>
      <point x="302" y="285" type="curve" smooth="yes"/>
      <point x="348" y="285"/>
      <point x="486" y="282"/>
      <point x="486" y="282" type="curve"/>
      <point x="499" y="282"/>
      <point x="502" y="288"/>
      <point x="502" y="297" type="curve" smooth="yes"/>
      <point x="502" y="340" type="line" smooth="yes"/>
      <point x="502" y="354"/>
      <point x="494" y="356"/>
      <point x="488" y="356" type="curve" smooth="yes"/>
      <point x="490" y="356"/>
      <point x="363" y="353"/>
      <point x="300" y="353" type="curve" smooth="yes"/>
      <point x="235" y="353"/>
      <point x="82" y="356"/>
    </contour>
  </outline>
</glyph>
<glyph name="radical" format="1">
  <advance width="762"/>
  <unicode hex="221A"/>
  <outline>
    <contour>
      <point x="223" y="60" type="curve" smooth="yes"/>
      <point x="202" y="34"/>
      <point x="148" y="6"/>
      <point x="102" y="-12" type="curve" smooth="yes"/>
      <point x="97" y="-14"/>
      <point x="93" y="-15"/>
      <point x="92" y="-15" type="curve" smooth="yes"/>
      <point x="88" y="-15"/>
      <point x="86" y="-12"/>
      <point x="86" y="-6" type="curve" smooth="yes"/>
      <point x="86" y="4"/>
      <point x="107" y="58"/>
      <point x="111" y="69" type="curve" smooth="yes"/>
      <point x="114" y="75"/>
      <point x="117" y="81"/>
      <point x="122" y="85" type="curve" smooth="yes"/>
      <point x="137" y="97"/>
      <point x="160" y="104"/>
      <point x="185" y="117" type="curve" smooth="yes"/>
      <point x="201" y="125"/>
      <point x="217" y="136"/>
      <point x="226" y="155" type="curve" smooth="yes"/>
      <point x="252" y="208"/>
      <point x="252" y="301"/>
      <point x="252" y="351" type="curve" smooth="yes"/>
      <point x="252" y="384"/>
      <point x="249" y="397"/>
      <point x="228" y="415" type="curve" smooth="yes"/>
      <point x="202" y="437"/>
      <point x="169" y="453"/>
      <point x="147" y="478" type="curve" smooth="yes"/>
      <point x="130" y="497"/>
      <point x="128" y="523"/>
      <point x="128" y="554" type="curve" smooth="yes"/>
      <point x="128" y="586"/>
      <point x="126" y="632"/>
      <point x="111" y="669" type="curve" smooth="yes"/>
      <point x="109" y="674"/>
      <point x="108" y="677"/>
      <point x="108" y="679" type="curve" smooth="yes"/>
      <point x="108" y="683"/>
      <point x="111" y="687"/>
      <point x="114" y="692" type="curve" smooth="yes"/>
      <point x="127" y="714"/>
      <point x="149" y="741"/>
      <point x="162" y="754" type="curve" smooth="yes"/>
      <point x="164" y="756"/>
      <point x="166" y="758"/>
      <point x="168" y="758" type="curve" smooth="yes"/>
      <point x="171" y="758"/>
      <point x="175" y="755"/>
      <point x="179" y="749" type="curve" smooth="yes"/>
      <point x="194" y="727"/>
      <point x="202" y="680"/>
      <point x="202" y="643" type="curve" smooth="yes"/>
      <point x="202" y="588"/>
      <point x="205" y="565"/>
      <point x="225" y="549" type="curve" smooth="yes"/>
      <point x="288" y="497"/>
      <point x="338" y="457"/>
      <point x="396" y="404" type="curve" smooth="yes"/>
      <point x="486" y="320"/>
      <point x="517" y="285"/>
      <point x="517" y="285" type="curve"/>
      <point x="519" y="284"/>
      <point x="521" y="282"/>
      <point x="524" y="282" type="curve" smooth="yes"/>
      <point x="526" y="282"/>
      <point x="528" y="283"/>
      <point x="530" y="286" type="curve" smooth="yes"/>
      <point x="553" y="318"/>
      <point x="563" y="378"/>
      <point x="563" y="416" type="curve" smooth="yes"/>
      <point x="563" y="441"/>
      <point x="558" y="473"/>
      <point x="541" y="505" type="curve" smooth="yes"/>
      <point x="539" y="509"/>
      <point x="537" y="512"/>
      <point x="537" y="516" type="curve" smooth="yes"/>
      <point x="537" y="519"/>
      <point x="538" y="523"/>
      <point x="540" y="526" type="curve" smooth="yes"/>
      <point x="552" y="544"/>
      <point x="589" y="584"/>
      <point x="604" y="599" type="curve" smooth="yes"/>
      <point x="607" y="602"/>
      <point x="608" y="604"/>
      <point x="613" y="604" type="curve" smooth="yes"/>
      <point x="615" y="604"/>
      <point x="617" y="602"/>
      <point x="618" y="601" type="curve" smooth="yes"/>
      <point x="636" y="577"/>
      <point x="657" y="538"/>
      <point x="657" y="485" type="curve" smooth="yes"/>
      <point x="657" y="441"/>
      <point x="644" y="406"/>
      <point x="634" y="380" type="curve" smooth="yes"/>
      <point x="621" y="345"/>
      <point x="591" y="293"/>
      <point x="568" y="259" type="curve" smooth="yes"/>
      <point x="563" y="251"/>
      <point x="562" y="245"/>
      <point x="562" y="245" type="curve"/>
      <point x="562" y="242"/>
      <point x="564" y="238"/>
      <point x="566" y="236" type="curve" smooth="yes"/>
      <point x="594" y="206"/>
      <point x="704" y="87"/>
      <point x="712" y="75" type="curve" smooth="yes"/>
      <point x="714" y="72"/>
      <point x="715" y="69"/>
      <point x="715" y="66" type="curve" smooth="yes"/>
      <point x="715" y="64"/>
      <point x="715" y="61"/>
      <point x="714" y="58" type="curve" smooth="yes"/>
      <point x="708" y="40"/>
      <point x="688" y="-4"/>
      <point x="681" y="-18" type="curve" smooth="yes"/>
      <point x="679" y="-22"/>
      <point x="676" y="-25"/>
      <point x="673" y="-25" type="curve" smooth="yes"/>
      <point x="670" y="-25"/>
      <point x="668" y="-23"/>
      <point x="665" y="-20" type="curve" smooth="yes"/>
      <point x="620" y="37"/>
      <point x="564" y="101"/>
      <point x="536" y="130" type="curve" smooth="yes"/>
      <point x="469" y="200"/>
      <point x="406" y="264"/>
      <point x="341" y="320" type="curve" smooth="yes"/>
      <point x="339" y="322"/>
      <point x="336" y="324"/>
      <point x="333" y="324" type="curve" smooth="yes"/>
      <point x="329" y="324"/>
      <point x="326" y="321"/>
      <point x="325" y="316" type="curve" smooth="yes"/>
      <point x="312" y="247"/>
      <point x="279" y="128"/>
    </contour>
  </outline>
</glyph>
<glyph name="lessequal" format="1">
  <advance width="568"/>
  <unicode hex="2264"/>
  <outline>
    <contour>
      <point x="90" y="76" type="curve"/>
      <point x="77" y="76"/>
      <point x="74" y="70"/>
      <point x="74" y="60" type="curve" smooth="yes"/>
      <point x="74" y="17" type="line" smooth="yes"/>
      <point x="74" y="8"/>
      <point x="77" y="2"/>
      <point x="90" y="2" type="curve" smooth="yes"/>
      <point x="90" y="2"/>
      <point x="230" y="5"/>
      <point x="285" y="5" type="curve" smooth="yes"/>
      <point x="331" y="5"/>
      <point x="477" y="2"/>
      <point x="477" y="2" type="curve"/>
      <point x="490" y="2"/>
      <point x="493" y="8"/>
      <point x="493" y="17" type="curve" smooth="yes"/>
      <point x="493" y="60" type="line" smooth="yes"/>
      <point x="493" y="74"/>
      <point x="485" y="76"/>
      <point x="479" y="76" type="curve" smooth="yes"/>
      <point x="479" y="76"/>
      <point x="340" y="73"/>
      <point x="283" y="73" type="curve" smooth="yes"/>
      <point x="218" y="73"/>
      <point x="90" y="76"/>
    </contour>
    <contour>
      <point x="91" y="294" type="curve"/>
      <point x="101" y="290"/>
      <point x="196" y="250"/>
      <point x="255" y="222" type="curve" smooth="yes"/>
      <point x="306" y="198"/>
      <point x="452" y="122"/>
      <point x="452" y="122" type="curve"/>
      <point x="454" y="121"/>
      <point x="456" y="121"/>
      <point x="459" y="121" type="curve" smooth="yes"/>
      <point x="463" y="121"/>
      <point x="468" y="123"/>
      <point x="472" y="131" type="curve" smooth="yes"/>
      <point x="490" y="170" type="line" smooth="yes"/>
      <point x="491" y="173"/>
      <point x="492" y="176"/>
      <point x="492" y="178" type="curve" smooth="yes"/>
      <point x="492" y="182"/>
      <point x="490" y="186"/>
      <point x="482" y="190" type="curve"/>
      <point x="482" y="190"/>
      <point x="363" y="244"/>
      <point x="321" y="264" type="curve" smooth="yes"/>
      <point x="289" y="278"/>
      <point x="224" y="311"/>
      <point x="179" y="333" type="curve"/>
      <point x="224" y="356"/>
      <point x="289" y="388"/>
      <point x="321" y="403" type="curve" smooth="yes"/>
      <point x="363" y="423"/>
      <point x="482" y="477"/>
      <point x="482" y="477" type="curve"/>
      <point x="490" y="481"/>
      <point x="492" y="485"/>
      <point x="492" y="489" type="curve" smooth="yes"/>
      <point x="492" y="491"/>
      <point x="491" y="494"/>
      <point x="490" y="497" type="curve" smooth="yes"/>
      <point x="472" y="536" type="line" smooth="yes"/>
      <point x="468" y="544"/>
      <point x="463" y="546"/>
      <point x="459" y="546" type="curve" smooth="yes"/>
      <point x="456" y="546"/>
      <point x="454" y="546"/>
      <point x="452" y="545" type="curve"/>
      <point x="452" y="545"/>
      <point x="324" y="480"/>
      <point x="273" y="456" type="curve" smooth="yes"/>
      <point x="205" y="424"/>
      <point x="153" y="401"/>
      <point x="91" y="374" type="curve" smooth="yes"/>
      <point x="81" y="370"/>
      <point x="74" y="365"/>
      <point x="74" y="355" type="curve" smooth="yes"/>
      <point x="74" y="313" type="line" smooth="yes"/>
      <point x="74" y="304"/>
      <point x="80" y="300"/>
    </contour>
  </outline>
</glyph>
<glyph name="greaterequal" format="1">
  <advance width="568"/>
  <unicode hex="2265"/>
  <outline>
    <contour>
      <point x="477" y="76" type="curve"/>
      <point x="490" y="76"/>
      <point x="493" y="70"/>
      <point x="493" y="60" type="curve" smooth="yes"/>
      <point x="493" y="17" type="line" smooth="yes"/>
      <point x="493" y="8"/>
      <point x="490" y="2"/>
      <point x="477" y="2" type="curve" smooth="yes"/>
      <point x="477" y="2"/>
      <point x="337" y="5"/>
      <point x="282" y="5" type="curve" smooth="yes"/>
      <point x="236" y="5"/>
      <point x="90" y="2"/>
      <point x="90" y="2" type="curve"/>
      <point x="77" y="2"/>
      <point x="74" y="8"/>
      <point x="74" y="17" type="curve" smooth="yes"/>
      <point x="74" y="60" type="line" smooth="yes"/>
      <point x="74" y="74"/>
      <point x="82" y="76"/>
      <point x="88" y="76" type="curve" smooth="yes"/>
      <point x="88" y="76"/>
      <point x="227" y="73"/>
      <point x="284" y="73" type="curve" smooth="yes"/>
      <point x="349" y="73"/>
      <point x="477" y="76"/>
    </contour>
    <contour>
      <point x="476" y="294" type="curve"/>
      <point x="466" y="290"/>
      <point x="371" y="250"/>
      <point x="312" y="222" type="curve" smooth="yes"/>
      <point x="261" y="198"/>
      <point x="115" y="122"/>
      <point x="115" y="122" type="curve"/>
      <point x="113" y="121"/>
      <point x="111" y="121"/>
      <point x="108" y="121" type="curve" smooth="yes"/>
      <point x="104" y="121"/>
      <point x="99" y="123"/>
      <point x="95" y="131" type="curve" smooth="yes"/>
      <point x="77" y="170" type="line" smooth="yes"/>
      <point x="76" y="173"/>
      <point x="75" y="176"/>
      <point x="75" y="178" type="curve" smooth="yes"/>
      <point x="75" y="182"/>
      <point x="77" y="186"/>
      <point x="85" y="190" type="curve"/>
      <point x="85" y="190"/>
      <point x="204" y="244"/>
      <point x="246" y="264" type="curve" smooth="yes"/>
      <point x="278" y="278"/>
      <point x="343" y="311"/>
      <point x="388" y="333" type="curve"/>
      <point x="343" y="356"/>
      <point x="278" y="388"/>
      <point x="246" y="403" type="curve" smooth="yes"/>
      <point x="204" y="423"/>
      <point x="85" y="477"/>
      <point x="85" y="477" type="curve"/>
      <point x="77" y="481"/>
      <point x="75" y="485"/>
      <point x="75" y="489" type="curve" smooth="yes"/>
      <point x="75" y="491"/>
      <point x="76" y="494"/>
      <point x="77" y="497" type="curve" smooth="yes"/>
      <point x="95" y="536" type="line" smooth="yes"/>
      <point x="99" y="544"/>
      <point x="104" y="546"/>
      <point x="108" y="546" type="curve" smooth="yes"/>
      <point x="111" y="546"/>
      <point x="113" y="546"/>
      <point x="115" y="545" type="curve"/>
      <point x="115" y="545"/>
      <point x="243" y="480"/>
      <point x="294" y="456" type="curve" smooth="yes"/>
      <point x="362" y="424"/>
      <point x="414" y="401"/>
      <point x="476" y="374" type="curve" smooth="yes"/>
      <point x="486" y="370"/>
      <point x="493" y="365"/>
      <point x="493" y="355" type="curve" smooth="yes"/>
      <point x="493" y="313" type="line" smooth="yes"/>
      <point x="493" y="304"/>
      <point x="487" y="300"/>
    </contour>
  </outline>
</glyph>
<glyph name="uniFB29" format="1">
  <advance width="568"/>
  <unicode hex="FB29"/>
  <outline>
    <contour>
      <point x="316" y="281" type="line"/>
      <point x="370" y="280"/>
      <point x="486" y="279"/>
      <point x="486" y="279" type="curve"/>
      <point x="499" y="279"/>
      <point x="502" y="285"/>
      <point x="502" y="294" type="curve" smooth="yes"/>
      <point x="502" y="337" type="line" smooth="yes"/>
      <point x="502" y="351"/>
      <point x="497" y="353"/>
      <point x="488" y="353" type="curve" smooth="yes"/>
      <point x="488" y="353"/>
      <point x="378" y="350"/>
      <point x="316" y="350" type="curve"/>
      <point x="316" y="406"/>
      <point x="319" y="515"/>
      <point x="319" y="515" type="curve"/>
      <point x="319" y="528"/>
      <point x="313" y="531"/>
      <point x="304" y="531" type="curve" smooth="yes"/>
      <point x="261" y="531" type="line" smooth="yes"/>
      <point x="247" y="531"/>
      <point x="245" y="523"/>
      <point x="245" y="517" type="curve" smooth="yes"/>
      <point x="245" y="517"/>
      <point x="247" y="413"/>
      <point x="248" y="350" type="curve"/>
      <point x="176" y="351"/>
      <point x="82" y="353"/>
      <point x="82" y="353" type="curve"/>
      <point x="69" y="353"/>
      <point x="66" y="347"/>
      <point x="66" y="337" type="curve" smooth="yes"/>
      <point x="66" y="294" type="line" smooth="yes"/>
      <point x="66" y="285"/>
      <point x="69" y="279"/>
      <point x="82" y="279" type="curve" smooth="yes"/>
      <point x="82" y="279"/>
      <point x="178" y="280"/>
      <point x="248" y="281" type="curve"/>
    </contour>
  </outline>
</glyph>
<glyph name="shindageshshindothebrew" format="1">
  <advance width="726"/>
  <unicode hex="FB2C"/>
  <outline>
    <contour>
      <point x="582" y="669" type="curve" smooth="yes"/>
      <point x="582" y="647"/>
      <point x="563" y="629"/>
      <point x="541" y="629" type="curve" smooth="yes"/>
      <point x="518" y="629"/>
      <point x="500" y="647"/>
      <point x="500" y="669" type="curve" smooth="yes"/>
      <point x="500" y="692"/>
      <point x="518" y="710"/>
      <point x="541" y="710" type="curve" smooth="yes"/>
      <point x="563" y="710"/>
      <point x="582" y="692"/>
    </contour>
    <component base="shinhebrew"/>
    <component base="dageshhebrew" xOffset="248"/>
  </outline>
</glyph>
<glyph name="ampersant.salt" format="1">
  <advance width="752"/>
  <outline>
    <contour>
      <point x="600" y="598" type="curve" smooth="yes"/>
      <point x="578" y="576"/>
      <point x="569" y="561"/>
      <point x="557" y="540" type="curve" smooth="yes"/>
      <point x="553" y="533"/>
      <point x="552" y="531"/>
      <point x="552" y="526" type="curve" smooth="yes"/>
      <point x="552" y="518"/>
      <point x="556" y="511"/>
      <point x="560" y="503" type="curve" smooth="yes"/>
      <point x="567" y="490"/>
      <point x="586" y="444"/>
      <point x="586" y="421" type="curve" smooth="yes"/>
      <point x="586" y="408"/>
      <point x="585" y="402"/>
      <point x="581" y="402" type="curve" smooth="yes"/>
      <point x="578" y="402"/>
      <point x="575" y="404"/>
      <point x="564" y="414" type="curve" smooth="yes"/>
      <point x="458" y="511"/>
      <point x="208" y="600"/>
      <point x="130" y="600" type="curve" smooth="yes"/>
      <point x="125" y="600"/>
      <point x="123" y="597"/>
      <point x="119" y="593" type="curve" smooth="yes"/>
      <point x="101" y="575"/>
      <point x="80" y="549"/>
      <point x="60" y="523" type="curve" smooth="yes"/>
      <point x="56" y="518"/>
      <point x="55" y="516"/>
      <point x="55" y="512" type="curve" smooth="yes"/>
      <point x="55" y="508"/>
      <point x="60" y="506"/>
      <point x="65" y="506" type="curve" smooth="yes"/>
      <point x="85" y="506"/>
      <point x="132" y="496"/>
      <point x="163" y="488" type="curve"/>
      <point x="188" y="428"/>
      <point x="225" y="311"/>
      <point x="225" y="280" type="curve" smooth="yes"/>
      <point x="225" y="270"/>
      <point x="220" y="266"/>
      <point x="210" y="260" type="curve" smooth="yes"/>
      <point x="182" y="246"/>
      <point x="123" y="224"/>
      <point x="118" y="223" type="curve" smooth="yes"/>
      <point x="111" y="221"/>
      <point x="108" y="217"/>
      <point x="107" y="213" type="curve" smooth="yes"/>
      <point x="105" y="204"/>
      <point x="96" y="178"/>
      <point x="84" y="151" type="curve" smooth="yes"/>
      <point x="77" y="136"/>
      <point x="48" y="98"/>
      <point x="48" y="54" type="curve" smooth="yes"/>
      <point x="48" y="-34"/>
      <point x="206" y="-41"/>
      <point x="271" y="-41" type="curve" smooth="yes"/>
      <point x="424" y="-41"/>
      <point x="539" y="-6"/>
      <point x="617" y="18" type="curve" smooth="yes"/>
      <point x="629" y="22"/>
      <point x="653" y="32"/>
      <point x="661" y="47" type="curve" smooth="yes"/>
      <point x="669" y="62"/>
      <point x="686" y="100"/>
      <point x="686" y="106" type="curve" smooth="yes"/>
      <point x="686" y="109"/>
      <point x="683" y="111"/>
      <point x="679" y="111" type="curve" smooth="yes"/>
      <point x="674" y="111"/>
      <point x="482" y="40"/>
      <point x="269" y="40" type="curve" smooth="yes"/>
      <point x="211" y="40"/>
      <point x="88" y="52"/>
      <point x="88" y="119" type="curve" smooth="yes"/>
      <point x="88" y="128"/>
      <point x="102" y="138"/>
      <point x="109" y="140" type="curve" smooth="yes"/>
      <point x="144" y="151"/>
      <point x="187" y="169"/>
      <point x="207" y="178" type="curve" smooth="yes"/>
      <point x="227" y="188"/>
      <point x="246" y="201"/>
      <point x="252" y="218" type="curve" smooth="yes"/>
      <point x="257" y="235"/>
      <point x="271" y="287"/>
      <point x="273" y="301" type="curve" smooth="yes"/>
      <point x="274" y="311"/>
      <point x="275" y="324"/>
      <point x="275" y="337" type="curve" smooth="yes"/>
      <point x="275" y="375"/>
      <point x="262" y="421"/>
      <point x="246" y="472" type="curve"/>
      <point x="278" y="465"/>
      <point x="319" y="452"/>
      <point x="347" y="432" type="curve"/>
      <point x="389" y="353"/>
      <point x="400" y="239"/>
      <point x="416" y="156" type="curve" smooth="yes"/>
      <point x="416" y="156"/>
      <point x="418" y="150"/>
      <point x="423" y="150" type="curve" smooth="yes"/>
      <point x="427" y="150"/>
      <point x="430" y="157"/>
      <point x="433" y="164" type="curve" smooth="yes"/>
      <point x="444" y="190"/>
      <point x="448" y="214"/>
      <point x="453" y="255" type="curve" smooth="yes"/>
      <point x="454" y="265"/>
      <point x="455" y="276"/>
      <point x="455" y="283" type="curve" smooth="yes"/>
      <point x="455" y="290"/>
      <point x="454" y="304"/>
      <point x="452" y="314" type="curve" smooth="yes"/>
      <point x="448" y="342"/>
      <point x="435" y="386"/>
      <point x="435" y="388" type="curve" smooth="yes"/>
      <point x="435" y="390"/>
      <point x="436" y="391"/>
      <point x="438" y="391" type="curve" smooth="yes"/>
      <point x="439" y="391"/>
      <point x="441" y="391"/>
      <point x="443" y="390" type="curve" smooth="yes"/>
      <point x="526" y="343"/>
      <point x="606" y="273"/>
      <point x="654" y="178" type="curve" smooth="yes"/>
      <point x="657" y="172"/>
      <point x="659" y="167"/>
      <point x="662" y="167" type="curve" smooth="yes"/>
      <point x="665" y="167"/>
      <point x="666" y="170"/>
      <point x="667" y="173" type="curve" smooth="yes"/>
      <point x="672" y="192"/>
      <point x="682" y="242"/>
      <point x="683" y="260" type="curve" smooth="yes"/>
      <point x="683" y="262"/>
      <point x="683" y="265"/>
      <point x="680" y="271" type="curve" smooth="yes"/>
      <point x="663" y="305"/>
      <point x="640" y="333"/>
      <point x="622" y="354" type="curve" smooth="yes"/>
      <point x="616" y="361"/>
      <point x="615" y="363"/>
      <point x="615" y="365" type="curve" smooth="yes"/>
      <point x="615" y="368"/>
      <point x="617" y="372"/>
      <point x="618" y="375" type="curve" smooth="yes"/>
      <point x="628" y="399"/>
      <point x="650" y="451"/>
      <point x="650" y="496" type="curve" smooth="yes"/>
      <point x="650" y="546"/>
      <point x="630" y="584"/>
      <point x="620" y="597" type="curve" smooth="yes"/>
      <point x="616" y="602"/>
      <point x="614" y="604"/>
      <point x="610" y="604" type="curve" smooth="yes"/>
      <point x="607" y="604"/>
      <point x="602" y="600"/>
    </contour>
  </outline>
</glyph>
<glyph name="bar" format="1">
  <advance width="326"/>
  <outline>
    <contour>
      <point x="137" y="-155" type="curve" smooth="yes"/>
      <point x="137" y="-163"/>
      <point x="139" y="-172"/>
      <point x="151" y="-172" type="curve" smooth="yes"/>
      <point x="175" y="-172" type="line" smooth="yes"/>
      <point x="186" y="-172"/>
      <point x="190" y="-164"/>
      <point x="190" y="-156" type="curve" smooth="yes"/>
      <point x="194" y="23"/>
      <point x="196" y="226"/>
      <point x="196" y="290" type="curve" smooth="yes"/>
      <point x="196" y="372"/>
      <point x="193" y="590"/>
      <point x="190" y="720" type="curve" smooth="yes"/>
      <point x="190" y="728"/>
      <point x="186" y="736"/>
      <point x="175" y="736" type="curve" smooth="yes"/>
      <point x="151" y="736" type="line" smooth="yes"/>
      <point x="139" y="736"/>
      <point x="137" y="727"/>
      <point x="137" y="719" type="curve" smooth="yes"/>
      <point x="133" y="592"/>
      <point x="130" y="372"/>
      <point x="130" y="290" type="curve" smooth="yes"/>
      <point x="130" y="226"/>
      <point x="134" y="-1"/>
    </contour>
  </outline>
</glyph>
<glyph name="eight.001" format="1">
  <advance width="500"/>
  <outline>
    <contour>
      <point x="47" y="151" type="curve" smooth="yes"/>
      <point x="47" y="229"/>
      <point x="99" y="272"/>
      <point x="146" y="298" type="curve" smooth="yes"/>
      <point x="150" y="300"/>
      <point x="151" y="303"/>
      <point x="151" y="304" type="curve" smooth="yes"/>
      <point x="151" y="306"/>
      <point x="151" y="307"/>
      <point x="150" y="308" type="curve" smooth="yes"/>
      <point x="121" y="323"/>
      <point x="77" y="356"/>
      <point x="77" y="426" type="curve" smooth="yes"/>
      <point x="77" y="445"/>
      <point x="85" y="476"/>
      <point x="97" y="493" type="curve" smooth="yes"/>
      <point x="115" y="520"/>
      <point x="151" y="556"/>
      <point x="172" y="569" type="curve" smooth="yes"/>
      <point x="188" y="581"/>
      <point x="216" y="595"/>
      <point x="252" y="595" type="curve" smooth="yes"/>
      <point x="326" y="595"/>
      <point x="390" y="540"/>
      <point x="390" y="468" type="curve" smooth="yes"/>
      <point x="390" y="415"/>
      <point x="360" y="377"/>
      <point x="322" y="349" type="curve" smooth="yes"/>
      <point x="314" y="343"/>
      <point x="308" y="339"/>
      <point x="305" y="335" type="curve" smooth="yes"/>
      <point x="304" y="334"/>
      <point x="304" y="332"/>
      <point x="304" y="332" type="curve" smooth="yes"/>
      <point x="304" y="329"/>
      <point x="305" y="328"/>
      <point x="306" y="327" type="curve" smooth="yes"/>
      <point x="321" y="319"/>
      <point x="348" y="303"/>
      <point x="369" y="285" type="curve" smooth="yes"/>
      <point x="398" y="259"/>
      <point x="419" y="216"/>
      <point x="419" y="175" type="curve" smooth="yes"/>
      <point x="419" y="139"/>
      <point x="401" y="96"/>
      <point x="371" y="60" type="curve" smooth="yes"/>
      <point x="339" y="23"/>
      <point x="273" y="-16"/>
      <point x="224" y="-16" type="curve" smooth="yes"/>
      <point x="190" y="-16"/>
      <point x="130" y="2"/>
      <point x="94" y="39" type="curve" smooth="yes"/>
      <point x="63" y="71"/>
      <point x="47" y="108"/>
    </contour>
    <contour>
      <point x="329" y="151" type="curve" smooth="yes"/>
      <point x="329" y="180"/>
      <point x="314" y="206"/>
      <point x="295" y="219" type="curve" smooth="yes"/>
      <point x="273" y="232"/>
      <point x="241" y="251"/>
      <point x="211" y="265" type="curve" smooth="yes"/>
      <point x="209" y="266"/>
      <point x="208" y="266"/>
      <point x="208" y="266" type="curve" smooth="yes"/>
      <point x="206" y="266"/>
      <point x="205" y="266"/>
      <point x="203" y="265" type="curve" smooth="yes"/>
      <point x="188" y="260"/>
      <point x="133" y="229"/>
      <point x="133" y="175" type="curve" smooth="yes"/>
      <point x="133" y="118"/>
      <point x="187" y="72"/>
      <point x="254" y="72" type="curve" smooth="yes"/>
      <point x="309" y="72"/>
      <point x="329" y="96"/>
    </contour>
    <contour>
      <point x="254" y="362" type="line"/>
      <point x="285" y="380"/>
      <point x="308" y="406"/>
      <point x="308" y="440" type="curve" smooth="yes"/>
      <point x="308" y="483"/>
      <point x="262" y="516"/>
      <point x="218" y="516" type="curve" smooth="yes"/>
      <point x="173" y="516"/>
      <point x="160" y="486"/>
      <point x="160" y="444" type="curve" smooth="yes"/>
      <point x="160" y="405"/>
      <point x="202" y="377"/>
      <point x="228" y="365" type="curve" smooth="yes"/>
      <point x="232" y="363"/>
      <point x="239" y="359"/>
      <point x="243" y="359" type="curve"/>
    </contour>
  </outline>
</glyph>
<glyph name="five.001" format="1">
  <advance width="500"/>
  <outline>
    <contour>
      <point x="125" y="90" type="curve" smooth="yes"/>
      <point x="127" y="93"/>
      <point x="132" y="96"/>
      <point x="136" y="96" type="curve" smooth="yes"/>
      <point x="138" y="96"/>
      <point x="143" y="95"/>
      <point x="146" y="94" type="curve" smooth="yes"/>
      <point x="173" y="85"/>
      <point x="213" y="78"/>
      <point x="240" y="78" type="curve" smooth="yes"/>
      <point x="264" y="78"/>
      <point x="299" y="80"/>
      <point x="316" y="95" type="curve" smooth="yes"/>
      <point x="336" y="112"/>
      <point x="338" y="134"/>
      <point x="338" y="166" type="curve" smooth="yes"/>
      <point x="338" y="196"/>
      <point x="323" y="218"/>
      <point x="300" y="236" type="curve" smooth="yes"/>
      <point x="275" y="254"/>
      <point x="225" y="267"/>
      <point x="177" y="267" type="curve" smooth="yes"/>
      <point x="142" y="267" type="line"/>
      <point x="117" y="267"/>
      <point x="107" y="280"/>
      <point x="105" y="294" type="curve" smooth="yes"/>
      <point x="100" y="338"/>
      <point x="100" y="399"/>
      <point x="100" y="439" type="curve" smooth="yes"/>
      <point x="100" y="460"/>
      <point x="101" y="467"/>
      <point x="101" y="478" type="curve" smooth="yes"/>
      <point x="101" y="483"/>
      <point x="99" y="492"/>
      <point x="99" y="501" type="curve" smooth="yes"/>
      <point x="99" y="509"/>
      <point x="100" y="516"/>
      <point x="103" y="522" type="curve" smooth="yes"/>
      <point x="118" y="550"/>
      <point x="132" y="579"/>
      <point x="146" y="595" type="curve" smooth="yes"/>
      <point x="147" y="597"/>
      <point x="151" y="599"/>
      <point x="155" y="599" type="curve" smooth="yes"/>
      <point x="159" y="599"/>
      <point x="167" y="597"/>
      <point x="168" y="594" type="curve" smooth="yes"/>
      <point x="173" y="586"/>
      <point x="184" y="563"/>
      <point x="188" y="558" type="curve" smooth="yes"/>
      <point x="192" y="553"/>
      <point x="197" y="553"/>
      <point x="203" y="553" type="curve" smooth="yes"/>
      <point x="395" y="553" type="line"/>
      <point x="406" y="553"/>
      <point x="410" y="548"/>
      <point x="410" y="544" type="curve" smooth="yes"/>
      <point x="410" y="540"/>
      <point x="404" y="529"/>
      <point x="403" y="528" type="curve" smooth="yes"/>
      <point x="395" y="516"/>
      <point x="367" y="477"/>
      <point x="359" y="467" type="curve" smooth="yes"/>
      <point x="354" y="461"/>
      <point x="346" y="458"/>
      <point x="335" y="458" type="curve" smooth="yes"/>
      <point x="196" y="458" type="line"/>
      <point x="186" y="458"/>
      <point x="181" y="456"/>
      <point x="181" y="446" type="curve" smooth="yes"/>
      <point x="181" y="446"/>
      <point x="184" y="392"/>
      <point x="184" y="379" type="curve" smooth="yes"/>
      <point x="184" y="365"/>
      <point x="194" y="354"/>
      <point x="203" y="354" type="curve"/>
      <point x="253" y="354" type="line"/>
      <point x="316" y="354"/>
      <point x="423" y="308"/>
      <point x="423" y="201" type="curve" smooth="yes"/>
      <point x="423" y="147"/>
      <point x="398" y="108"/>
      <point x="381" y="86" type="curve" smooth="yes"/>
      <point x="338" y="31"/>
      <point x="263" y="-16"/>
      <point x="195" y="-16" type="curve" smooth="yes"/>
      <point x="160" y="-16"/>
      <point x="116" y="-8"/>
      <point x="85" y="6" type="curve" smooth="yes"/>
      <point x="79" y="9"/>
      <point x="77" y="12"/>
      <point x="77" y="16" type="curve" smooth="yes"/>
      <point x="77" y="20"/>
      <point x="80" y="24"/>
      <point x="81" y="26" type="curve" smooth="yes"/>
      <point x="96" y="48"/>
      <point x="117" y="80"/>
    </contour>
  </outline>
</glyph>
<glyph name="nine.001" format="1">
  <advance width="500"/>
  <outline>
    <contour>
      <point x="274" y="210" type="curve" smooth="yes"/>
      <point x="274" y="213"/>
      <point x="274" y="215"/>
      <point x="271" y="215" type="curve" smooth="yes"/>
      <point x="268" y="215"/>
      <point x="243" y="202"/>
      <point x="213" y="202" type="curve" smooth="yes"/>
      <point x="174" y="202"/>
      <point x="135" y="215"/>
      <point x="104" y="246" type="curve" smooth="yes"/>
      <point x="72" y="280"/>
      <point x="49" y="322"/>
      <point x="49" y="378" type="curve" smooth="yes"/>
      <point x="49" y="432"/>
      <point x="70" y="474"/>
      <point x="101" y="515" type="curve" smooth="yes"/>
      <point x="133" y="557"/>
      <point x="197" y="595"/>
      <point x="257" y="595" type="curve" smooth="yes"/>
      <point x="355" y="595"/>
      <point x="446" y="509"/>
      <point x="446" y="411" type="curve" smooth="yes"/>
      <point x="446" y="351"/>
      <point x="421" y="295"/>
      <point x="391" y="246" type="curve" smooth="yes"/>
      <point x="360" y="195"/>
      <point x="289" y="94"/>
      <point x="265" y="62" type="curve" smooth="yes"/>
      <point x="257" y="52"/>
      <point x="248" y="42"/>
      <point x="243" y="37" type="curve" smooth="yes"/>
      <point x="230" y="25"/>
      <point x="153" y="-26"/>
      <point x="135" y="-26" type="curve" smooth="yes"/>
      <point x="129" y="-26"/>
      <point x="124" y="-20"/>
      <point x="124" y="-15" type="curve" smooth="yes"/>
      <point x="124" y="-11"/>
      <point x="125" y="-8"/>
      <point x="127" y="-4" type="curve" smooth="yes"/>
      <point x="141" y="16"/>
      <point x="274" y="207"/>
    </contour>
    <contour>
      <point x="230" y="510" type="curve" smooth="yes"/>
      <point x="197" y="510"/>
      <point x="160" y="496"/>
      <point x="144" y="470" type="curve" smooth="yes"/>
      <point x="133" y="452"/>
      <point x="128" y="423"/>
      <point x="128" y="405" type="curve" smooth="yes"/>
      <point x="128" y="361"/>
      <point x="145" y="333"/>
      <point x="166" y="310" type="curve" smooth="yes"/>
      <point x="186" y="289"/>
      <point x="226" y="276"/>
      <point x="253" y="276" type="curve" smooth="yes"/>
      <point x="290" y="276"/>
      <point x="306" y="286"/>
      <point x="322" y="303" type="curve" smooth="yes"/>
      <point x="340" y="320"/>
      <point x="354" y="355"/>
      <point x="354" y="393" type="curve" smooth="yes"/>
      <point x="354" y="463"/>
      <point x="294" y="510"/>
    </contour>
  </outline>
</glyph>
<glyph name="qamatsqatanhebrew" format="1">
  <advance width="0"/>
  <outline>
    <contour>
      <point x="162" y="-140" type="curve" smooth="yes"/>
      <point x="134" y="-138"/>
      <point x="119" y="-136"/>
      <point x="107" y="-134" type="curve" smooth="yes"/>
      <point x="97" y="-132"/>
      <point x="91" y="-131"/>
      <point x="91" y="-120" type="curve" smooth="yes"/>
      <point x="91" y="-94" type="line" smooth="yes"/>
      <point x="91" y="-86"/>
      <point x="95" y="-77"/>
      <point x="107" y="-77" type="curve" smooth="yes"/>
      <point x="122" y="-76"/>
      <point x="205" y="-73"/>
      <point x="205" y="-73" type="curve"/>
      <point x="244" y="-73"/>
      <point x="291" y="-77"/>
      <point x="304" y="-77" type="curve" smooth="yes"/>
      <point x="315" y="-77"/>
      <point x="319" y="-86"/>
      <point x="319" y="-94" type="curve" smooth="yes"/>
      <point x="319" y="-120" type="line" smooth="yes"/>
      <point x="319" y="-128"/>
      <point x="314" y="-132"/>
      <point x="304" y="-134" type="curve" smooth="yes"/>
      <point x="293" y="-136"/>
      <point x="274" y="-138"/>
      <point x="249" y="-140" type="curve" smooth="yes"/>
      <point x="243" y="-140"/>
      <point x="241" y="-143"/>
      <point x="240" y="-152" type="curve" smooth="yes"/>
      <point x="238" y="-167"/>
      <point x="232" y="-246"/>
      <point x="231" y="-252" type="curve" smooth="yes"/>
      <point x="229" y="-264"/>
      <point x="225" y="-267"/>
      <point x="216" y="-267" type="curve" smooth="yes"/>
      <point x="195" y="-267" type="line" smooth="yes"/>
      <point x="186" y="-267"/>
      <point x="183" y="-264"/>
      <point x="181" y="-252" type="curve" smooth="yes"/>
      <point x="179" y="-237"/>
      <point x="174" y="-168"/>
      <point x="172" y="-152" type="curve" smooth="yes"/>
      <point x="171" y="-141"/>
      <point x="166" y="-140"/>
    </contour>
  </outline>
</glyph>
<glyph name="seven.001" format="1">
  <advance width="500"/>
  <outline>
    <contour>
      <point x="121" y="82" type="curve" smooth="yes"/>
      <point x="139" y="130"/>
      <point x="199" y="216"/>
      <point x="246" y="296" type="curve" smooth="yes"/>
      <point x="286" y="364"/>
      <point x="325" y="417"/>
      <point x="325" y="448" type="curve" smooth="yes"/>
      <point x="325" y="454"/>
      <point x="320" y="456"/>
      <point x="312" y="456" type="curve" smooth="yes"/>
      <point x="59" y="456" type="line"/>
      <point x="49" y="456"/>
      <point x="41" y="464"/>
      <point x="41" y="473" type="curve" smooth="yes"/>
      <point x="41" y="476"/>
      <point x="43" y="478"/>
      <point x="43" y="480" type="curve" smooth="yes"/>
      <point x="63" y="515"/>
      <point x="101" y="573"/>
      <point x="119" y="592" type="curve" smooth="yes"/>
      <point x="122" y="594"/>
      <point x="126" y="599"/>
      <point x="130" y="599" type="curve" smooth="yes"/>
      <point x="135" y="599"/>
      <point x="142" y="593"/>
      <point x="144" y="587" type="curve" smooth="yes"/>
      <point x="151" y="562"/>
      <point x="155" y="552"/>
      <point x="188" y="552" type="curve" smooth="yes"/>
      <point x="438" y="552" type="line"/>
      <point x="452" y="552"/>
      <point x="453" y="540"/>
      <point x="453" y="535" type="curve" smooth="yes"/>
      <point x="453" y="526"/>
      <point x="446" y="510"/>
      <point x="437" y="491" type="curve" smooth="yes"/>
      <point x="412" y="438"/>
      <point x="350" y="361"/>
      <point x="326" y="324" type="curve" smooth="yes"/>
      <point x="291" y="271"/>
      <point x="236" y="185"/>
      <point x="220" y="130" type="curve" smooth="yes"/>
      <point x="214" y="112"/>
      <point x="211" y="96"/>
      <point x="209" y="88" type="curve" smooth="yes"/>
      <point x="207" y="79"/>
      <point x="203" y="61"/>
      <point x="199" y="56" type="curve" smooth="yes"/>
      <point x="184" y="34"/>
      <point x="146" y="2"/>
      <point x="123" y="-17" type="curve" smooth="yes"/>
      <point x="119" y="-20"/>
      <point x="113" y="-24"/>
      <point x="109" y="-24" type="curve" smooth="yes"/>
      <point x="105" y="-24"/>
      <point x="103" y="-21"/>
      <point x="103" y="-17" type="curve" smooth="yes"/>
      <point x="103" y="21"/>
      <point x="112" y="56"/>
    </contour>
  </outline>
</glyph>
<glyph name="six.001" format="1">
  <advance width="500"/>
  <outline>
    <contour>
      <point x="97" y="289" type="curve" smooth="yes"/>
      <point x="132" y="359"/>
      <point x="225" y="490"/>
      <point x="278" y="550" type="curve" smooth="yes"/>
      <point x="286" y="558"/>
      <point x="295" y="563"/>
      <point x="299" y="566" type="curve" smooth="yes"/>
      <point x="311" y="573"/>
      <point x="374" y="599"/>
      <point x="386" y="599" type="curve" smooth="yes"/>
      <point x="391" y="599"/>
      <point x="394" y="596"/>
      <point x="394" y="593" type="curve" smooth="yes"/>
      <point x="394" y="586"/>
      <point x="370" y="558"/>
      <point x="362" y="547" type="curve" smooth="yes"/>
      <point x="344" y="522"/>
      <point x="234" y="371"/>
      <point x="234" y="362" type="curve" smooth="yes"/>
      <point x="234" y="361"/>
      <point x="236" y="359"/>
      <point x="236" y="359" type="curve" smooth="yes"/>
      <point x="237" y="359"/>
      <point x="240" y="368"/>
      <point x="284" y="368" type="curve" smooth="yes"/>
      <point x="335" y="368"/>
      <point x="377" y="348"/>
      <point x="400" y="325" type="curve" smooth="yes"/>
      <point x="429" y="296"/>
      <point x="449" y="251"/>
      <point x="449" y="195" type="curve" smooth="yes"/>
      <point x="449" y="137"/>
      <point x="408" y="76"/>
      <point x="363" y="36" type="curve" smooth="yes"/>
      <point x="325" y="3"/>
      <point x="275" y="-16"/>
      <point x="227" y="-16" type="curve" smooth="yes"/>
      <point x="139" y="-16"/>
      <point x="56" y="67"/>
      <point x="56" y="155" type="curve" smooth="yes"/>
      <point x="56" y="207"/>
      <point x="78" y="251"/>
    </contour>
    <contour>
      <point x="340" y="242" type="curve" smooth="yes"/>
      <point x="320" y="270"/>
      <point x="282" y="291"/>
      <point x="244" y="291" type="curve" smooth="yes"/>
      <point x="183" y="291"/>
      <point x="142" y="248"/>
      <point x="142" y="184" type="curve" smooth="yes"/>
      <point x="142" y="120"/>
      <point x="192" y="73"/>
      <point x="258" y="73" type="curve" smooth="yes"/>
      <point x="330" y="73"/>
      <point x="363" y="101"/>
      <point x="363" y="173" type="curve" smooth="yes"/>
      <point x="363" y="191"/>
      <point x="354" y="223"/>
    </contour>
  </outline>
</glyph>
<glyph name="two.001" format="1">
  <advance width="500"/>
  <outline>
    <contour>
      <point x="70" y="19" type="curve" smooth="yes"/>
      <point x="95" y="88"/>
      <point x="155" y="165"/>
      <point x="182" y="198" type="curve" smooth="yes"/>
      <point x="224" y="251"/>
      <point x="301" y="333"/>
      <point x="301" y="397" type="curve" smooth="yes"/>
      <point x="301" y="430"/>
      <point x="276" y="469"/>
      <point x="235" y="484" type="curve" smooth="yes"/>
      <point x="207" y="496"/>
      <point x="148" y="504"/>
      <point x="113" y="504" type="curve" smooth="yes"/>
      <point x="104" y="504"/>
      <point x="99" y="508"/>
      <point x="99" y="513" type="curve" smooth="yes"/>
      <point x="99" y="514"/>
      <point x="101" y="519"/>
      <point x="103" y="522" type="curve" smooth="yes"/>
      <point x="112" y="537"/>
      <point x="133" y="567"/>
      <point x="149" y="585" type="curve" smooth="yes"/>
      <point x="151" y="588"/>
      <point x="159" y="595"/>
      <point x="168" y="595" type="curve" smooth="yes"/>
      <point x="178" y="595"/>
      <point x="186" y="595"/>
      <point x="199" y="593" type="curve" smooth="yes"/>
      <point x="256" y="584"/>
      <point x="325" y="568"/>
      <point x="359" y="529" type="curve" smooth="yes"/>
      <point x="382" y="502"/>
      <point x="395" y="479"/>
      <point x="395" y="432" type="curve" smooth="yes"/>
      <point x="395" y="384"/>
      <point x="356" y="329"/>
      <point x="314" y="276" type="curve" smooth="yes"/>
      <point x="273" y="226"/>
      <point x="202" y="123"/>
      <point x="201" y="103" type="curve" smooth="yes"/>
      <point x="201" y="97"/>
      <point x="203" y="94"/>
      <point x="207" y="94" type="curve" smooth="yes"/>
      <point x="445" y="94" type="line" smooth="yes"/>
      <point x="451" y="94"/>
      <point x="454" y="91"/>
      <point x="454" y="87" type="curve" smooth="yes"/>
      <point x="454" y="85"/>
      <point x="451" y="80"/>
      <point x="449" y="77" type="curve" smooth="yes"/>
      <point x="443" y="66"/>
      <point x="415" y="21"/>
      <point x="401" y="8" type="curve" smooth="yes"/>
      <point x="396" y="3"/>
      <point x="390" y="1"/>
      <point x="385" y="1" type="curve"/>
      <point x="82" y="1" type="line"/>
      <point x="72" y="1"/>
      <point x="68" y="4"/>
      <point x="68" y="11" type="curve" smooth="yes"/>
      <point x="68" y="14"/>
      <point x="69" y="16"/>
    </contour>
  </outline>
</glyph>
<glyph name="zero.001" format="1">
  <advance width="500"/>
  <outline>
    <contour>
      <point x="45" y="281" type="curve" smooth="yes"/>
      <point x="45" y="345"/>
      <point x="60" y="444"/>
      <point x="103" y="501" type="curve" smooth="yes"/>
      <point x="140" y="549"/>
      <point x="194" y="595"/>
      <point x="255" y="595" type="curve" smooth="yes"/>
      <point x="319" y="595"/>
      <point x="382" y="561"/>
      <point x="413" y="514" type="curve" smooth="yes"/>
      <point x="455" y="449"/>
      <point x="465" y="363"/>
      <point x="465" y="289" type="curve" smooth="yes"/>
      <point x="465" y="244"/>
      <point x="458" y="200"/>
      <point x="449" y="171" type="curve" smooth="yes"/>
      <point x="438" y="136"/>
      <point x="415" y="84"/>
      <point x="363" y="34" type="curve" smooth="yes"/>
      <point x="339" y="10"/>
      <point x="290" y="-16"/>
      <point x="240" y="-16" type="curve" smooth="yes"/>
      <point x="187" y="-16"/>
      <point x="132" y="2"/>
      <point x="96" y="61" type="curve" smooth="yes"/>
      <point x="65" y="111"/>
      <point x="45" y="200"/>
    </contour>
    <contour>
      <point x="273" y="75" type="curve" smooth="yes"/>
      <point x="288" y="75"/>
      <point x="323" y="77"/>
      <point x="345" y="100" type="curve" smooth="yes"/>
      <point x="359" y="116"/>
      <point x="371" y="137"/>
      <point x="377" y="176" type="curve" smooth="yes"/>
      <point x="382" y="211"/>
      <point x="383" y="239"/>
      <point x="383" y="285" type="curve" smooth="yes"/>
      <point x="383" y="340"/>
      <point x="373" y="404"/>
      <point x="345" y="447" type="curve" smooth="yes"/>
      <point x="319" y="487"/>
      <point x="279" y="501"/>
      <point x="238" y="501" type="curve" smooth="yes"/>
      <point x="200" y="501"/>
      <point x="165" y="484"/>
      <point x="151" y="455" type="curve" smooth="yes"/>
      <point x="130" y="412"/>
      <point x="124" y="357"/>
      <point x="124" y="302" type="curve" smooth="yes"/>
      <point x="124" y="241"/>
      <point x="139" y="174"/>
      <point x="155" y="140" type="curve" smooth="yes"/>
      <point x="177" y="92"/>
      <point x="222" y="75"/>
    </contour>
  </outline>
</glyph>
